<svg width="260" height="260" viewBox="0 0 260 260" fill="none" xmlns="http://www.w3.org/2000/svg">
<path d="M47.621 7.5708C53.4446 6.3627 59.4494 6.31548 65.2909 7.43311C71.1326 8.55081 76.6966 10.811 81.663 14.0835C86.6293 17.3561 90.9008 21.5773 94.2323 26.5044C97.5638 31.4313 99.8899 36.9676 101.077 42.7954C102.264 48.6234 102.289 54.6287 101.15 60.4663C98.211 76.1481 89.6857 86.7987 73.0458 94.3335C65.0001 97.9787 34.7426 100.77 19.8095 77.7563C13.3706 67.8321 10.0775 55.7393 12.3876 43.4829C13.4843 37.6372 15.7247 32.0655 18.9794 27.0874C22.2341 22.1095 26.4395 17.8232 31.3544 14.4741C36.2694 11.1249 41.7974 8.77893 47.621 7.5708ZM56.8954 50.1245C56.6587 50.0996 56.4196 50.1289 56.1952 50.2085C55.9708 50.2883 55.7666 50.4168 55.5985 50.5854C55.4039 50.7761 55.2558 51.0095 55.1669 51.2671C55.0779 51.5246 55.0505 51.7996 55.0858 52.0698C55.1213 52.34 55.2186 52.5988 55.371 52.8247C55.5233 53.0506 55.7266 53.2376 55.9638 53.3716C57.4925 54.1489 58.8128 52.1306 58.0683 50.8462C57.939 50.6461 57.7663 50.4767 57.5634 50.3521C57.3606 50.2275 57.1322 50.1495 56.8954 50.1245ZM59.9423 27.1636C55.3312 20.8573 46.0927 27.3194 46.5683 31.8979C46.6749 32.9262 47.9206 33.5515 48.4081 32.6313C48.7773 31.9307 48.4992 31.0258 49.747 29.7974C53.1296 26.4655 57.8666 25.7104 58.3788 29.9614C58.8906 34.2121 52.9479 36.3193 52.0233 40.8286C51.8772 41.5671 51.8164 42.3203 51.8407 43.0728C52.2502 45.3647 53.7147 47.9019 54.9198 46.9243C56.4172 45.7049 54.0099 44.3739 54.1308 42.3745C54.4001 37.8937 60.917 35.6265 60.9433 30.354C60.9699 29.2096 60.6179 28.0878 59.9423 27.1636Z" fill="black"/>
<path d="M26.7046 232.889C45.1438 227.84 90.2265 222.277 109.212 220.034C154.803 214.645 202.273 210.134 247.792 208.027C247.929 208.026 248.063 208.078 248.165 208.172C248.266 208.266 248.326 208.396 248.334 208.534C248.342 208.673 248.295 208.808 248.205 208.913C248.115 209.019 247.988 209.085 247.85 209.098C191.161 212.868 60.3304 226.701 27.2129 235.08C26.5291 235.251 26.0299 233.074 26.7046 232.889Z" fill="black"/>
<path d="M185.25 149.306C184.963 148.656 186.261 149.389 186.742 148.038C187.888 144.817 187.902 143.807 186.412 142.691C184.639 141.547 182.729 140.629 180.727 139.961C180.227 139.808 181.308 139.311 182.538 137.814C182.85 137.435 182.753 137.581 185.725 139.064C189.35 140.875 189.576 140.675 190.015 141.84C190.584 143.185 191.633 144.271 192.959 144.884C195.649 146.256 198.264 147.561 200.411 145.281C200.678 144.996 200.66 145.029 202.16 145.82C209.028 149.443 208.84 148.736 209.002 149.495C209.191 150.3 209.567 151.049 210.098 151.681C210.63 152.314 211.302 152.812 212.063 153.135C214.266 154.317 215.378 155.148 217.606 154.386C224.106 152.163 227.965 142.98 225.001 140.057C222.463 137.556 221.085 135.83 217.576 136.601C217.032 136.72 217.468 136.724 210.618 131.93C209.907 131.432 209.897 131.307 210.007 130.902C210.119 130.482 210.129 130.041 210.037 129.616C209.945 129.191 209.752 128.794 209.476 128.459C205.652 123.408 202.196 123.59 200.961 123.667C200.842 123.681 200.721 123.667 200.608 123.627C200.495 123.586 200.394 123.521 200.311 123.434C194.721 116.996 155.302 89.6215 145.726 83.1683C144.775 82.5261 145.37 82.309 145.118 81.4224C144.208 78.2153 139.341 73.8642 136.408 72.7345C124.807 68.2664 110.673 83.2008 111.892 95.4936C112.563 102.254 116 104.807 122.192 107.261C123.289 107.687 124.474 107.832 125.641 107.682C126.86 107.343 128.031 106.849 129.124 106.211C130.272 105.45 129.665 107.387 165.914 128.347C166.494 128.683 166.254 128.654 166.234 129.312C166.124 131.878 166.691 134.426 167.878 136.703C168.152 137.223 167.748 136.963 166.045 136.913C161.551 136.77 161.157 138.041 161.142 142.466C161.142 143.391 161.675 143.807 162.599 144.324C163.953 145.085 164.005 145.121 163.927 145.387C163.782 145.884 126.971 249.489 126.914 251.11C126.871 252.342 128.176 253.281 129.384 253.498C129.663 253.549 130.783 250.782 132.79 245.736C137.528 233.824 149.67 204.738 151.837 199.215C170.097 152.675 167.46 158.988 170.069 152.573C170.444 151.65 170.434 152.428 170.651 156.068C170.754 157.783 176.688 242.289 177.031 246.318C177.341 249.928 177.49 249.92 177.984 249.958C178.536 250.097 179.113 250.1 179.665 249.967C180.219 249.835 180.731 249.569 181.16 249.196C181.836 248.377 181.615 248.087 181.314 239.576C181.142 234.744 178.289 155.156 178.312 155.153C178.312 151.773 208.441 226.812 218.563 249.341C218.973 250.251 219.527 249.819 220.949 249.121C221.465 248.762 221.837 248.232 221.997 247.623C222.157 247.015 222.096 246.37 221.824 245.803C217.65 234.579 185.25 149.306 185.25 149.306ZM224.453 140.856C225.723 142.222 225.334 145.849 222.893 149.258C221.177 151.652 218.015 154.502 215.326 153.44C213.766 152.825 213.136 151.1 214.163 147.85C215.639 143.168 221.859 138.061 224.452 140.854L224.453 140.856ZM219.579 137.476C220.477 137.602 221.308 138.028 221.933 138.686C222.047 138.787 222.416 139.164 221.727 139.167C217.84 139.621 212.893 145.45 212.627 150.048C212.524 151.777 212.887 152.03 212.36 151.845C208.706 150.564 209.732 145.302 212.655 141.497C213.649 140.229 214.846 139.136 216.199 138.262C217.212 137.645 218.396 137.369 219.578 137.476H219.579ZM215.939 136.843C216.674 137.32 215.249 136.87 212.498 139.963C207.259 145.848 209.996 148.624 208.078 147.785C207.286 147.438 205.774 146.577 202.465 144.858C197.135 142.091 197.188 142.119 197.265 141.523C197.708 139.129 198.692 136.869 200.142 134.913C201.383 133.113 202.955 131.563 204.772 130.348C205.274 129.998 205.576 129.749 206.222 130.197C207.19 130.874 209.533 132.684 215.93 136.843H215.939ZM204.952 125.544C206.968 126.883 208.748 128.794 207.971 128.433C205.924 127.479 203.476 129.628 201.634 131.345C199.013 133.784 197.129 136.909 196.196 140.364C195.967 141.064 195.88 141.802 195.939 142.535C195.997 143.268 196.2 143.983 196.537 144.637C196.68 144.86 197.007 145.417 196.277 145.195C194.74 144.74 193.306 143.994 192.052 142.997C190.787 141.945 190.512 139.699 190.532 138.111C190.624 130.207 199.892 122.188 204.945 125.544H204.952ZM124.329 106.124C124.183 106.338 123.924 106.299 123.679 106.207C119.401 104.592 114.208 102.594 113.409 96.3503C112.239 87.1671 118.824 77.0947 128.099 74.1203C130.598 73.1555 133.355 73.0862 135.899 73.924C138.484 75.2133 140.761 77.0424 142.578 79.2878C141.489 78.8721 140.313 78.738 139.159 78.8978C129.138 80.1094 117.936 99.8382 123.869 105.588C124.077 105.79 124.385 106.04 124.329 106.124ZM124.181 100.986C124.036 100.925 123.918 100.813 123.85 100.671C123.781 100.529 123.766 100.367 123.808 100.215C125.897 87.977 136.118 80.3174 138.779 80.4136C139.261 80.3811 139.224 80.3408 143.285 83.1839C159.741 94.7006 183.29 110.451 199.397 123.834C200.012 124.344 195.777 124.403 191.755 130.359C188.058 135.835 189.909 140.012 189.073 139.571C157.273 122.835 127.339 102.611 124.181 100.986ZM163.116 138.296C163.896 137.454 167.843 138.166 168.316 138.218C168.531 138.228 168.74 138.288 168.927 138.391C169.116 138.495 169.277 138.64 169.4 138.816C170.516 140.161 172.051 141.094 173.759 141.461C175.468 141.829 177.25 141.612 178.82 140.845C179.082 140.665 179.401 140.587 179.716 140.628C181.565 141.196 183.342 141.972 185.015 142.942C190.223 146.21 176.264 145.086 166.676 141.133C165.675 140.715 162.377 139.086 163.116 138.292V138.296ZM182.703 148.012C171.591 148.047 162.145 143.734 162.206 142.521C162.293 140.797 162.256 139.613 162.778 140.099C166.617 143.666 181.44 146.656 185.975 145.677C186.215 145.625 186.261 145.701 186.235 145.874C186.135 146.442 185.995 147.002 185.817 147.551C185.488 148.167 184.818 148.002 182.703 148.008V148.012Z" fill="black"/>
<path d="M215.863 151.025C216.674 152.975 220.098 151.018 221.963 147.93C222.812 146.526 223.647 145.005 223.375 143.604C223.05 141.914 221.111 142.104 219.843 143.056C217.504 144.813 215.066 148.54 215.863 151.025Z" fill="black"/>
<path d="M60.0432 146.403C61.4316 146.403 61.3705 146.481 61.3432 146.013C61.3432 146.013 61.1261 143.839 60.9298 141.173C60.8687 140.344 62.651 139.536 62.8252 144.44C62.9032 146.65 63.0228 146.52 63.4076 146.529C68.3242 146.633 68.3879 146.389 68.5634 146.81C68.7233 147.2 66.5952 147.797 66.1857 147.873C63.2074 148.427 63.1957 147.873 63.1957 148.7C63.2321 154.216 63.2165 153.107 63.3556 154.241C63.3829 154.458 63.145 154.453 63.0605 154.388C62.1908 153.721 61.7605 150.571 61.7267 149.814C61.6409 148.093 61.5122 148.197 61.1716 148.171C58.7315 147.984 58.1387 148.035 58.0997 147.478C58.0178 146.334 58.8901 146.403 60.0432 146.403Z" fill="black"/>
<path d="M155.622 30.3793C155.622 33.1093 155.504 33.0573 155.974 33.0586C157.845 33.0586 158.314 33.1197 159.012 33.16C159.71 33.2003 159.647 33.6943 159.31 33.901C158.379 34.4626 157.311 34.7551 156.224 34.746C155.405 34.8253 155.788 34.5484 155.375 38.3561C155.14 40.5336 154.938 41.4007 154.517 41.0978C153.743 40.5414 153.882 36.8468 153.759 35.1282C153.73 34.7148 153.819 34.6758 151.741 34.6797C151.338 34.6797 150.794 34.7278 150.675 34.2364C150.495 33.485 150.622 33.1171 152.105 33.0664C153.817 33.004 153.879 33.1249 153.895 32.744C153.929 31.1 154.053 29.459 154.266 27.8287C154.266 27.6501 154.337 27.4787 154.464 27.3525C154.59 27.2263 154.761 27.1553 154.939 27.1553C155.117 27.1553 155.289 27.2263 155.415 27.3525C155.541 27.4787 155.613 27.6501 155.613 27.8287C155.66 28.6781 155.662 29.5295 155.622 30.3793Z" fill="black"/>
<path d="M223.891 75.44C224.234 75.5466 223.551 76.1707 222.981 76.4203C222.344 76.6183 221.686 76.7444 221.021 76.796C220.869 76.8194 220.579 76.796 220.531 77.0313C220.353 77.9179 220.277 79.1919 219.929 81.3213C219.669 82.9125 219.395 83.0256 219.149 83.0633C218.958 83.0919 218.629 82.8436 218.652 81.3941C218.683 79.7483 218.773 77.5201 218.819 77.2575C218.877 76.9273 218.236 77.0053 216.562 77.1847C216.394 77.2038 216.226 77.1627 216.086 77.0689C215.947 76.975 215.844 76.8344 215.799 76.6724C215.753 76.5103 215.768 76.3372 215.838 76.1844C215.908 76.0315 216.03 75.9086 216.184 75.8378C216.936 75.462 217.753 75.2289 218.591 75.1501C218.741 75.115 218.914 75.2177 218.998 74.9785C219.298 74.1361 219.219 72.0237 219.495 70.9486C219.788 69.8007 220.622 70.1386 220.644 71.0161C220.788 77.1703 219.892 74.1972 223.891 75.44Z" fill="black"/>
</svg>
