<svg width="213" height="213" viewBox="0 0 213 213" fill="none" xmlns="http://www.w3.org/2000/svg">
<path d="M71.2699 121.005C71.5787 121.655 71.9621 122.475 72.7183 122.581C74.3797 122.581 76.7972 121.303 76.0943 119.514C75.7207 118.564 75.2941 117.636 74.8164 116.734C74.5501 115.797 74.1667 114.913 73.2189 114.796C72.3426 114.854 71.5057 115.181 70.8226 115.733C68.8311 116.734 69.9386 118.151 71.2699 121.005ZM70.1091 116.937C70.3647 116.138 71.9622 115.446 73.0698 115.382C73.7833 115.478 74.0176 116.532 74.3903 117.182C74.9441 118.119 76.3286 119.748 75.647 120.792C75.3224 121.236 74.8952 121.595 74.4019 121.838C73.9086 122.08 73.3639 122.2 72.8142 122.187C72.1219 121.985 71.8663 121.122 71.5042 120.27C71.1421 119.418 69.7683 118.034 70.1091 116.937ZM81.5472 115.094C80.8443 113.284 79.9177 110.951 78.2457 112.027C77.1807 112.506 76.2008 112.836 75.8707 113.603C75.7683 113.966 75.7526 114.348 75.8247 114.718C75.8968 115.088 76.0549 115.436 76.286 115.733C76.9463 116.969 77.6386 120.6 79.9923 119.354C82.1436 118.353 83.0701 118.002 81.5472 115.094ZM78.3522 118.673C77.8654 117.945 77.4448 117.175 77.0954 116.372C76.3286 114.839 74.9654 113.657 77.5108 112.932C79.7153 111.761 79.6408 112.613 80.8336 115.062C81.2064 115.85 81.7282 116.191 81.8986 117.352C81.9945 118.044 81.3235 118.417 80.578 118.619C80.5887 118.279 79.268 119.791 78.3841 118.673H78.3522ZM87.2343 110.557C86.542 109.12 86.2864 108.917 85.6368 108.758C84.9127 108.768 84.2097 109.003 83.6239 109.428C81.4939 110.6 82.1436 111.282 82.9636 113.262C84.625 117.267 85.2321 117.16 87.8626 115.392C88.0524 115.303 88.2222 115.176 88.3619 115.019C88.5016 114.863 88.6085 114.68 88.676 114.481C88.7436 114.282 88.7705 114.072 88.7552 113.863C88.7398 113.653 88.6826 113.449 88.5868 113.262C88.2116 112.325 87.7592 111.42 87.2343 110.557ZM87.1065 115.286C84.4653 116.468 85.1469 116.266 83.3151 113.049C82.953 112.336 82.3778 111.91 82.495 110.813C82.6334 110.259 83.4215 109.886 83.9008 109.748C86.3503 108.683 86.0308 109.428 87.6176 112.229C88.0923 112.799 88.3756 113.503 88.427 114.242C88.2779 115.084 86.787 115.286 87.1065 115.286ZM96.3719 103.07C95.0833 103.954 95.8075 105.392 96.6276 106.723C97.4796 108.683 98.1611 110.664 100.099 109.428C102.006 108.47 102.858 108.363 102.016 106.372C101.664 105.444 101.237 104.546 100.738 103.688C99.6521 101.292 98.6297 101.814 96.3719 103.07ZM97.5328 103.007C98.225 102.634 98.9492 102.272 99.5243 102.676C100.084 103.279 100.487 104.011 100.696 104.806C101.271 106.074 103.103 108.001 101.09 108.608C99.29 109.556 98.3422 109.844 97.6073 107.852C97.2026 106.99 95.9566 105.041 96.0311 104.008C96.4039 103.464 96.7127 103.443 97.5328 103.007ZM102.602 101.824C103.88 104.54 104.498 107.597 106.713 106.191C108.108 105.488 109.61 104.849 108.843 103.369C108.448 102.414 108 101.483 107.501 100.578C106.809 99.1406 106.543 98.9276 105.893 98.7785C105.169 98.7894 104.466 99.0237 103.88 99.4494L103.38 99.7157C103.187 99.7994 103.013 99.9212 102.869 100.074C102.725 100.227 102.613 100.407 102.54 100.604C102.468 100.801 102.436 101.011 102.446 101.22C102.457 101.43 102.51 101.636 102.602 101.824ZM106.223 99.3536C106.779 99.9579 107.177 100.689 107.384 101.484C108.257 102.964 109.418 104.679 107.789 105.275C105.169 106.628 105.222 106.276 104.115 103.922C102.954 101.952 101.867 100.727 103.912 99.8648C103.912 100.046 105.435 98.853 106.223 99.3536ZM90.7274 110.44C89.7689 108.864 90.1523 108.683 88.7678 106.862C89.2151 108.843 89.5133 108.608 90.2801 110.366C90.6835 111.472 91.2238 112.524 91.8883 113.497C92.0374 113.337 92.2078 113.348 91.654 112.24C91.3858 111.62 91.0763 111.019 90.7274 110.44ZM93.6136 107.192C93.2714 106.388 92.8429 105.624 92.3356 104.913C92.489 105.785 92.8148 106.618 93.2941 107.362C94.1461 108.864 94.4549 110.355 95.4773 111.622C96.0098 111.132 94.4975 109.333 93.6136 107.192ZM29.032 141.048C27.8179 138.78 28.1161 138.609 26.9872 137.491C27.1365 138.278 27.4406 139.027 27.8818 139.696C28.7338 141.187 29.0533 142.688 30.065 143.956C30.3845 143.668 29.0959 141.165 29.032 141.048ZM33.3239 142.316C33.6221 142.028 33.4198 141.964 33.2174 141.453C32.8022 140.528 32.3401 139.626 31.8329 138.748C31.4158 137.679 30.8724 136.663 30.2141 135.723C30.6934 137.8 30.9809 137.502 31.7371 139.259C32.1315 140.342 32.6649 141.37 33.3239 142.316ZM39.0217 135.425C38.7646 134.52 38.3221 133.679 37.7224 132.954C36.9662 132.326 36.2207 132.709 35.4965 133.061C33.7499 133.913 33.5369 134.126 33.4624 134.775C33.4859 135.565 33.7374 136.331 34.1866 136.98C35.7095 139.866 35.3794 141.24 38.4466 139.738C38.8373 139.665 39.1978 139.478 39.4836 139.202C39.7694 138.925 39.968 138.571 40.0547 138.183C39.8924 137.206 39.5415 136.269 39.0217 135.425ZM39.6287 138.684C38.8726 139.515 38.3401 139.44 37.4987 139.887C36.6574 140.335 36.242 139.706 35.7734 139.025C34.325 136.107 33.4198 135.393 34.1546 134.488C34.2783 134.34 34.431 134.22 34.6032 134.134C34.7754 134.048 34.9635 133.998 35.1557 133.987C36.6787 133.199 37.2857 132.922 38.0525 134.296C39.1921 136.916 40.0121 137.555 39.6287 138.684ZM45.2945 132.986C44.8366 131.154 43.6438 128.897 42.0995 129.919C41.0345 130.398 40.0547 130.728 39.7246 131.495C39.6207 131.857 39.6032 132.238 39.6735 132.608C39.7438 132.978 39.8999 133.327 40.1293 133.625C40.8002 134.871 41.4925 138.492 43.8355 137.257C45.8696 136.362 45.9655 136.192 46.0933 135.691C46.1555 135.21 46.1166 134.72 45.9791 134.255C45.8416 133.789 45.6084 133.357 45.2945 132.986ZM44.3254 136.554C42.5468 137.481 42.3019 136.842 42.1954 136.65C41.8745 136.257 41.6192 135.814 41.4392 135.34C40.5127 133.029 38.5424 131.612 41.3647 130.792C43.8461 129.472 43.4947 130.792 45.0602 133.572C45.4136 134.066 45.637 134.641 45.7099 135.244C45.7951 135.819 45.3691 136.022 44.3254 136.554ZM46.7429 127.48C46.3716 127.674 46.0885 128.003 45.9519 128.399C45.8152 128.795 45.8353 129.229 46.0081 129.61C47.2328 132.06 47.8292 135.446 50.1722 133.955C51.9082 133.061 52.3981 132.89 52.3981 132.251C52.6004 131.186 50.7154 127.917 50.7686 127.991C49.7356 125.776 48.7771 126.447 46.7429 127.48ZM48.2552 127.331C49.9273 126.468 50.1722 128.023 51.3437 130.132C51.9934 131.197 52.675 132.262 51.5035 132.88C51.1351 133.087 50.7546 133.272 50.3639 133.434C48.17 134.371 48.7664 133.359 47.1689 130.92C46.8281 130.228 46.2424 129.781 46.3595 128.684C46.498 128.066 47.0305 127.97 48.2552 127.331ZM60.7583 125.67C61.4825 127.161 61.7382 127.502 62.3665 127.587C63.996 127.587 64.816 126.426 64.816 126.756C66.0621 125.861 66.4987 125.691 64.422 121.751C63.7723 120.334 63.5274 120.015 62.8245 119.834C61.9484 119.901 61.1131 120.231 60.4282 120.781C58.1491 121.9 60.0235 123.731 60.7583 125.67ZM62.6221 120.345C63.325 120.451 63.57 121.495 63.9427 122.166C64.3155 122.837 64.8586 123.763 65.3272 124.701C65.7 125.414 65.2739 126.234 64.9757 126.287C62.047 127.842 61.9831 127.352 61.0885 125.297C60.9607 125.009 60.8542 125.009 59.8424 122.965C58.9372 121.282 61.3121 120.441 62.6221 120.345ZM53.2501 127.107C53.6548 127.81 54.8476 130.302 55.5505 131.431C56.0617 130.92 54.6878 129.174 53.8678 127.342C53.5042 126.448 52.985 125.626 52.3342 124.914C52.4843 125.7 52.7961 126.448 53.2501 127.107ZM57.1799 125.67C57.534 126.262 57.8402 126.882 58.0958 127.523C58.426 128.172 58.9692 129.11 59.2248 129.504C59.736 129.003 58.3514 127.203 57.542 125.414C57.169 124.502 56.6391 123.662 55.9765 122.933C56.2003 123.913 56.6087 124.842 57.1799 125.67ZM67.7128 120.558C67.4164 119.655 66.9173 118.831 66.2537 118.151C66.6158 119.855 67.0418 119.929 67.7341 121.527C67.8406 121.782 69.0867 124.914 69.4275 124.562C69.7683 124.211 67.6596 120.451 67.7128 120.558ZM65.0823 109.397C65.8171 110.611 66.6478 112.4 66.5945 112.283C66.6801 112.476 66.8068 112.648 66.9659 112.787C67.1251 112.926 67.3127 113.029 67.5157 113.088C67.7186 113.147 67.932 113.16 68.1409 113.128C68.3497 113.096 68.5489 113.018 68.7245 112.9C69.9386 112.123 72.1858 112.187 70.567 109.184C70.1665 108.155 69.6894 107.158 69.1399 106.202C68.1601 104.583 66.3709 105.957 65.9449 106.084C65.4945 106.276 65.0912 106.563 64.7628 106.926C64.1557 108.097 64.9651 108.928 65.0823 109.397ZM66.7862 106.202C68.7778 105.435 68.4796 106.532 70.1836 109.397C71.6746 111.878 70.1836 111.527 70.1836 112.027C70.0345 111.878 70.1836 112.027 69.9067 112.027C66.8288 113.326 67.3507 112.666 65.4124 109.269C64.8905 108.204 64.6669 107.703 65.0077 107.139C65.5226 106.697 66.1305 106.376 66.7862 106.202ZM71.5894 106.031C71.9955 107.098 72.4577 108.144 72.9739 109.162C73.0586 109.356 73.1861 109.529 73.3469 109.667C73.5077 109.805 73.6976 109.905 73.9025 109.959C74.1073 110.014 74.3218 110.021 74.5298 109.981C74.7379 109.94 74.9341 109.853 75.1039 109.727C75.9026 109.279 76.9357 109.098 77.4362 108.3C77.5815 107.951 77.6314 107.57 77.5808 107.196C77.5303 106.821 77.3812 106.467 77.1487 106.17C76.4778 104.881 76.3712 104.295 75.7216 103.092C74.6566 101.207 72.3988 103.156 72.5266 103.028C72.0028 103.18 71.5358 103.484 71.1847 103.901C70.9184 104.434 71.0463 104.945 71.5894 106.031ZM72.6544 103.262C73.9857 102.762 74.4755 102.399 75.2636 103.795C76.7546 107.149 78.7994 108.406 75.0719 109.343C73.6022 109.886 73.4745 109.141 72.5479 107.416C70.6948 103.933 71.3551 104.114 72.6864 103.305L72.6544 103.262ZM85.051 99.6198C86.5207 102.559 86.5633 102.953 87.3301 103.305C88.45 103.293 89.528 102.877 90.3653 102.133C90.6704 101.786 90.8541 101.348 90.8887 100.887C90.9233 100.426 90.8069 99.9663 90.557 99.5772C90.2801 99.4175 90.3866 98.9276 89.0341 96.3822C88.1395 94.7847 85.8391 95.8284 84.6463 97.1916C84.2203 97.9797 84.7635 98.64 85.051 99.6198ZM85.051 97.1916C85.3705 96.7337 87.181 96.1266 87.0851 96.1905C88.6187 95.6154 88.7998 97.4792 89.95 99.2151C90.3234 99.7169 90.5251 100.326 90.5251 100.951C90.4186 101.899 89.5879 102.197 88.6081 102.527C87.2555 103.326 86.6272 101.718 86.0627 100.664C85.4983 99.6092 84.2842 97.9797 85.0297 97.1916H85.051ZM79.545 104.934C79.8527 105.702 80.2726 106.42 80.791 107.064C81.2809 106.574 79.907 104.796 79.0976 102.996C78.7197 102.081 78.1865 101.237 77.5215 100.504C78.2137 102.985 78.8634 103.177 79.545 104.934ZM83.0701 102.964C83.4175 103.743 83.8234 104.494 84.2842 105.211C84.7954 104.7 83.4322 102.953 82.6015 101.121C82.2282 100.206 81.6984 99.363 81.0359 98.6294C81.8134 101.356 82.495 101.292 83.0701 102.964ZM92.506 96.3929C93.1171 97.7072 93.7997 98.9871 94.5508 100.227C95.062 99.705 93.7094 98.0223 92.8574 96.1373C92.5018 95.2172 91.9822 94.3692 91.3238 93.6345C91.5386 94.6209 91.9398 95.5571 92.506 96.3929ZM97.3837 95.8497C97.7471 96.6224 98.1561 97.3727 98.6084 98.0969C99.109 97.607 97.7564 95.7752 96.947 93.9966C96.5651 93.1115 96.0357 92.2977 95.3815 91.5897C96.1909 94.4439 96.8086 94.1564 97.3837 95.8497ZM101.335 94.0179C101.696 94.7951 102.105 95.5491 102.56 96.2757C103.071 95.7645 101.708 94.0286 100.877 92.1861C100.504 91.2709 99.9738 90.4276 99.3113 89.694C100.11 92.3991 100.781 92.3778 101.335 94.0179ZM27.935 133.05C28.2101 132.959 28.4515 132.788 28.6281 132.558C28.8046 132.328 28.9082 132.051 28.9255 131.762C28.5301 129.9 27.7181 128.152 26.5505 126.65C26.2306 126.411 25.8421 126.282 25.4429 126.282C25.0438 126.282 24.6553 126.411 24.3353 126.65C22.2053 127.619 22.3544 128.13 22.3012 128.343C22.1627 129.408 23.8774 132.901 24.4312 133.572C25.2193 134.435 26.4653 133.806 27.935 133.05ZM25.1767 133.231C24.6229 132.795 24.2395 131.73 23.2277 129.962C22.8337 129.291 22.4716 128.598 22.8869 127.981C23.4194 127.161 26.018 126.117 26.7316 127.81C27.9244 130.643 29.0639 131.367 28.3823 132.379C27.7007 133.391 25.7731 133.689 25.1767 133.231ZM28.9468 127.406C30.5762 130.207 30.4484 132.134 33.2707 130.388C33.7499 130.185 34.5274 129.898 34.751 129.323C34.8803 128.959 34.9187 128.568 34.863 128.186C34.8073 127.804 34.6592 127.441 34.4315 127.129C33.3665 124.999 32.8234 121.708 29.9692 123.934C28.2545 125.137 28.0522 124.722 28.9468 127.406ZM30.5549 124.115L30.949 123.966C31.7797 123.646 32.195 123.966 32.653 124.839C34.3144 128.481 36.1675 129.259 32.4932 130.313C31.0235 130.867 30.8851 130.111 29.9585 128.385C28.6379 125.947 27.6901 124.956 30.5549 124.115ZM36.7319 127.054C36.8474 127.303 37.0283 127.516 37.2553 127.669C37.4823 127.823 37.7468 127.912 38.0206 127.928C38.5744 127.928 38.7874 127.715 40.1506 126.98C41.3114 126.98 41.7055 125.35 40.8215 124.253C39.682 122.123 39.2666 118.928 36.3592 121.058C35.9119 121.388 34.3889 121.846 34.9321 123.188C35.438 124.519 36.0395 125.811 36.7319 127.054ZM36.9449 120.962L37.339 120.813C38.1697 120.504 38.585 120.877 39.043 121.687C40.6085 125.116 41.8865 125.648 40.2677 126.65H40.0654C37.1473 127.81 37.733 127.715 35.6776 123.902C34.8575 122.4 34.6232 121.676 36.9449 120.962ZM42.419 121.026C42.7763 121.615 43.0861 122.231 43.3456 122.869C43.6864 123.55 44.1976 124.434 44.4745 124.86C44.975 124.349 43.6012 122.581 42.7811 120.771C42.4055 119.857 41.876 119.014 41.2156 118.279C41.4439 119.261 41.8519 120.192 42.419 121.026ZM46.8601 120.856C47.2203 121.636 47.6331 122.39 48.0955 123.114C48.6067 122.603 47.2328 120.845 46.4128 119.024C46.0401 118.109 45.5063 117.269 44.8366 116.543C45.614 119.386 46.253 119.099 46.8601 120.856ZM68.9376 128.268C67.3507 129.333 68.1601 130.196 68.8417 131.836C70.3007 135.361 70.6202 135.936 73.8259 133.966C74.0079 133.868 74.1671 133.733 74.2932 133.569C74.4193 133.405 74.5094 133.216 74.5576 133.015C74.6059 132.814 74.6112 132.605 74.5732 132.402C74.5352 132.199 74.4547 132.006 74.3371 131.836C73.985 130.908 73.5576 130.011 73.0591 129.152C71.8876 126.735 71.3551 127.076 68.9376 128.268ZM70.2901 128.119C71.9515 127.203 72.1539 128.865 73.3786 130.91C74.6034 132.954 74.3158 133.391 72.8674 134.009C70.0664 135.212 71.0037 134.467 69.1612 131.708C68.8204 131.016 68.2346 130.547 68.3837 129.44C68.5861 128.865 69.0334 128.694 70.2901 128.119ZM79.0444 125.861C78.7675 125.233 78.448 124.53 77.6279 124.317C76.8566 124.301 76.1036 124.553 75.4979 125.031C74.2199 125.861 73.8472 126.213 74.2093 127.161C74.8164 128.694 75.711 130.42 75.6577 130.356C76.0305 131.154 76.5417 132.156 77.415 132.038C78.2022 131.831 78.9503 131.496 79.6301 131.048C79.8224 130.981 79.9983 130.874 80.1468 130.735C80.2953 130.595 80.4129 130.426 80.4922 130.239C80.5714 130.051 80.6105 129.849 80.607 129.645C80.6034 129.442 80.5573 129.241 80.4715 129.056C80.0608 127.964 79.5842 126.897 79.0444 125.861ZM79.7686 130.728C77.7238 131.793 76.9677 132.358 76.1157 130.239C75.5725 128.865 73.3573 126.373 75.253 125.574C75.9117 125.099 76.6902 124.819 77.5001 124.764C78.203 124.871 78.4374 125.893 78.8101 126.564C80.0881 128.811 81.004 129.93 79.7579 130.728H79.7686ZM99.8012 118.012C97.8097 112.836 96.7447 114.711 95.2643 115.158C94.814 115.35 94.4106 115.637 94.0822 116C93.903 116.335 93.8257 116.715 93.8598 117.093C93.8939 117.472 94.0378 117.832 94.2739 118.13C96.1163 121.804 96.0524 123.263 99.4178 121.442C100.951 120.952 100.749 119.28 99.8012 118.012ZM98.4487 121.569L98.1398 121.665C97.192 122.006 96.7127 121.846 96.2974 121.016C94.4762 117.821 94.0183 116.99 94.4443 116.362C94.9297 115.891 95.5331 115.56 96.1909 115.403L96.585 115.254C97.4263 114.903 97.8629 115.339 98.2889 116.106C99.748 119.28 101.718 120.579 98.4487 121.569ZM38.4253 150.9C38.3051 150.07 38.0112 149.275 37.5626 148.567C36.3805 146.192 36.2314 144.765 33.8351 145.926C31.7797 146.916 31.0022 147.342 32.5145 149.835C33.2281 151.198 33.5795 152.976 34.7084 153.221C35.8373 153.466 38.3401 151.752 38.4253 150.9ZM33.9097 151.602C32.44 148.695 31.9501 148.407 32.0992 147.609C32.2483 146.81 35.1451 144.84 36.2101 146.874C37.2751 149.228 38.0525 150.133 38.1164 150.836C38.2229 151.901 35.2516 153.562 33.9416 151.571L33.9097 151.602ZM38.2229 146.224C39.3944 148.194 39.9376 150.921 41.8652 149.749C43.0793 148.972 45.3158 149.025 43.6864 146.022C43.2812 144.997 42.8007 144.004 42.2486 143.051C41.1836 141.528 39.5009 142.88 39.0536 143.051C37.4987 143.924 37.2751 144.36 38.2229 146.224ZM39.9695 143.029C41.9717 142.262 41.6842 143.402 43.3669 146.224C43.8674 147.066 44.2189 147.641 43.942 148.205C43.7697 148.523 43.4788 148.76 43.1326 148.865C40.3423 150.037 40.5233 149.526 39.3305 147.385C37.978 144.946 37.1579 143.775 39.9695 143.051V143.029ZM48.7771 140.058C47.7121 138.173 45.4543 140.122 45.6353 139.994C45.3594 140.013 45.0933 140.104 44.8637 140.258C44.634 140.412 44.4489 140.623 44.327 140.872C44.205 141.12 44.1505 141.396 44.169 141.672C44.1874 141.947 44.2781 142.214 44.4319 142.443C44.8312 143.71 45.3706 144.928 46.04 146.075C46.1284 146.266 46.2566 146.435 46.416 146.572C46.5755 146.709 46.7625 146.811 46.9644 146.869C47.1662 146.928 47.3783 146.942 47.5863 146.912C47.7943 146.881 47.9934 146.807 48.17 146.693C48.6599 146.363 50.2255 145.745 50.3 145.628C50.5684 145.271 50.7081 144.833 50.6965 144.387C50.6849 143.94 50.5227 143.51 50.2361 143.168C49.6823 142.252 49.448 141.304 48.7771 140.058ZM50.1935 145.181C49.7755 145.596 49.2757 145.921 48.7257 146.134C48.1757 146.346 47.5876 146.442 46.9985 146.416C46.4554 146.192 46.1146 145.287 44.9218 143.093C44.4638 142.241 44.2295 141.847 44.3999 141.102C44.3999 140.729 45.4649 140.25 45.6353 140.25C48.1913 139.323 47.4458 139.781 49.5226 143.253C49.9805 143.956 50.5556 144.499 50.1935 145.181ZM62.2067 139.76C63.5593 139.121 64.7841 138.365 64.0173 137.033C63.6388 136.085 63.1977 135.164 62.6966 134.275C62.0044 132.848 61.7488 132.635 61.0991 132.475C60.3741 132.49 59.6712 132.728 59.0863 133.157C56.9563 134.307 57.7657 135.425 57.8403 135.553C59.5017 138.886 59.6401 141.315 62.2067 139.76ZM58.5751 136.32C58.3767 136.08 58.2283 135.803 58.1386 135.505C58.049 135.206 58.02 134.893 58.0532 134.584C58.213 134.009 58.8627 133.742 59.4591 133.519C61.834 132.518 61.44 133.263 63.0694 136.096C64.3261 138.226 64.0279 138.578 62.5582 139.206C59.917 140.377 60.7051 139.898 58.5751 136.32ZM52.4726 141.4C52.8414 142.223 53.2722 143.017 53.7613 143.775C53.9423 143.604 54.1021 143.615 53.5483 142.507C53.2747 141.9 52.9579 141.313 52.6004 140.75C51.7591 139.27 52.004 138.908 50.4704 137.118C51.4502 139.887 51.8123 139.579 52.4726 141.4ZM53.9743 135.255C56.8391 140.761 56.5836 140.974 57.5527 142.081C58.0426 141.591 56.6687 139.813 55.8593 138.013C55.4439 136.965 54.7999 136.023 53.9743 135.255ZM64.4965 130.526C64.8799 132.315 65.2739 132.305 65.9875 133.955C66.3803 135.065 66.9174 136.117 67.585 137.087C67.7447 136.937 67.9151 136.937 67.3613 135.84C67.0979 135.23 66.7844 134.642 66.4241 134.083C65.7851 132.795 65.7852 131.964 64.4965 130.526ZM79.0551 136.203C79.2773 137.015 79.603 137.795 80.0242 138.524C80.7058 139.856 81.0892 140.931 81.9412 141.059C83.1517 140.863 84.2981 140.381 85.2853 139.653C84.87 139.238 83.8688 140.601 81.9625 140.718C81.2596 140.516 81.004 139.653 80.6526 138.801C80.3011 137.949 78.1178 135.425 80.0242 134.658C80.6674 134.164 81.4499 133.885 82.2607 133.86C82.9636 133.966 83.1979 134.925 83.5813 135.659C85.0191 138.215 85.3812 138.663 84.9765 139.376L85.2001 139.515C85.3451 139.297 85.4328 139.046 85.4552 138.786C85.4775 138.525 85.4337 138.263 85.3279 138.024C84.7954 136.682 83.8263 134.733 83.8795 134.829C83.592 134.2 83.2831 133.497 82.4631 133.295C81.7935 133.287 81.1408 133.505 80.61 133.913C79.4704 134.435 78.6291 135.063 79.0551 136.203ZM89.1726 137.757L90.5784 137.044C90.7659 136.912 90.9249 136.743 91.0457 136.548C91.1666 136.353 91.2468 136.136 91.2816 135.909C91.3164 135.682 91.3051 135.451 91.2483 135.229C91.1915 135.006 91.0904 134.798 90.9511 134.616C90.6229 133.762 90.235 132.933 89.7902 132.134C89.2577 130.973 89.0022 130.547 88.2034 130.43C87.4773 130.439 86.7727 130.678 86.1906 131.112L85.6793 131.389C85.2942 131.57 84.9922 131.891 84.8341 132.286C84.676 132.681 84.6736 133.122 84.8274 133.519C85.7326 134.85 86.8083 139.376 89.1726 137.757ZM86.6805 131.367C87.9798 130.824 88.6294 130.579 89.1193 131.442C91.5688 135.702 91.8777 136.096 89.8861 136.948C87.3727 138.013 87.9691 137.736 86.1693 134.562C85.6 133.999 85.2749 133.234 85.264 132.432C85.4344 131.911 86.0628 131.644 86.6805 131.389V131.367ZM38.2229 159.643C37.1579 157.758 37.3922 157.29 36.1781 156.075C36.3255 156.863 36.6298 157.613 37.0727 158.28C37.9567 159.814 38.2336 161.251 39.2666 162.54L39.3518 162.444C39.0894 161.469 38.7104 160.528 38.2229 159.643ZM42.6001 161.081C42.6001 159.941 41.4499 158.355 40.96 157.343C40.5595 156.275 40.0378 155.257 39.4051 154.308C39.8843 156.438 40.1612 156.086 40.928 157.854C41.3196 159.008 41.8833 160.096 42.6001 161.081ZM48.9901 157.322C49.1338 156.972 49.182 156.59 49.1296 156.216C49.0772 155.842 48.9261 155.488 48.6919 155.192C47.9677 153.807 47.9464 153.381 47.2541 152.103C46.1891 150.218 43.8781 152.22 44.0591 152.103C43.5364 152.252 43.0694 152.552 42.7172 152.966C42.2912 153.615 42.7172 154.34 43.0154 154.979C43.4166 156.067 43.8752 157.134 44.3893 158.174C45.1987 159.803 46.7003 158.6 47.3287 158.323C47.0944 158.568 47.0198 158.546 47.8079 158.174C48.2815 158.02 48.6951 157.722 48.9901 157.322ZM48.6599 157.215C48.5121 157.482 48.2798 157.691 47.9996 157.811C46.5299 158.142 45.5927 159.068 44.8046 157.577C42.2912 153.179 42.5362 153.221 44.2189 152.156C46.7749 151.198 46.0507 151.709 48.1061 155.149C49.1498 156.768 48.6493 157.013 48.6812 157.215H48.6599ZM50.545 155.16C50.6398 155.344 50.7712 155.508 50.9311 155.64C51.0911 155.773 51.2762 155.871 51.4754 155.93C51.6745 155.989 51.8836 156.007 52.0898 155.982C52.296 155.958 52.4951 155.892 52.675 155.788L53.6548 155.351C54.8263 155.106 55.7102 154.095 55.0499 152.987C54.5207 151.632 53.9199 150.306 53.2501 149.015C52.3448 147.311 50.545 148.674 49.9805 148.833C49.5295 149.029 49.1262 149.319 48.7984 149.685C48.6192 150.021 48.5419 150.401 48.576 150.779C48.6101 151.158 48.754 151.518 48.9901 151.815C49.5901 152.89 50.1098 154.008 50.545 155.16ZM49.235 150.058C49.7237 149.584 50.3305 149.249 50.9923 149.089L51.3863 148.94C52.217 148.589 52.6537 149.046 53.0797 149.803C54.4109 152.731 55.2097 152.998 54.8263 154.137C54.5524 154.634 54.1051 155.014 53.5696 155.202C51.0881 156.001 51.7378 155.735 49.6717 152.199C48.6386 150.569 49.235 150.165 49.235 150.058ZM61.014 149.1C59.949 146.97 59.459 143.775 56.5516 145.905C56.0191 146.299 55.4866 146.384 55.2097 146.863C54.7624 147.577 55.2097 148.173 55.5505 149.281C56.9456 151.752 56.9137 152.859 58.2343 152.923C58.8733 152.923 61.3015 151.986 61.4293 150.623C61.4722 150.354 61.4573 150.079 61.3857 149.816C61.314 149.554 61.1873 149.31 61.014 149.1ZM61.1204 151.134C60.95 151.528 58.0852 153.264 57.2332 151.539C57.18 151.432 55.5505 148.514 55.3162 147.907C55.2386 147.679 55.2274 147.434 55.284 147.2C55.3406 146.966 55.4626 146.753 55.6357 146.586C56.2319 146.229 56.8682 145.943 57.5314 145.734C59.0543 145.17 59.1715 146.874 60.5347 149.206C61.1311 150.165 61.4293 150.569 61.1204 151.113V151.134ZM73.1656 139.259C73.0357 139.037 72.8586 138.845 72.6466 138.699C72.4347 138.553 72.1931 138.455 71.9391 138.412C71.6851 138.369 71.4248 138.383 71.1766 138.452C70.9285 138.521 70.6985 138.644 70.5031 138.812C69.8363 139.063 69.2275 139.447 68.7139 139.941C68.5375 140.277 68.4628 140.658 68.4987 141.036C68.5346 141.414 68.6797 141.773 68.9162 142.071C70.0664 144.275 70.3114 146.033 71.8663 146.139C72.2604 146.139 72.3669 146.033 73.6768 145.383C76.0944 144.52 75.1571 143.338 73.1656 139.259ZM73.5384 145.223C72.2497 145.724 71.7811 146.703 70.6735 144.329C69.9067 142.699 68.0642 140.463 69.7789 139.877C70.461 139.368 71.2819 139.078 72.1326 139.046C72.7503 139.131 72.6438 139.376 74.827 143.391C75.1252 144.733 74.0389 144.84 73.5384 145.223ZM64.6988 149.941C64.8053 149.835 64.8693 149.781 64.8586 149.664C64.7841 149.004 63.2079 146.576 62.7286 145.287C62.4571 144.569 62.0763 143.897 61.5997 143.295C61.7584 144.144 62.0803 144.955 62.5475 145.681C63.2611 146.97 63.964 149.206 64.6988 149.941ZM68.4157 148.131C68.7032 147.843 68.5115 147.768 68.3092 147.257C67.893 146.335 67.4273 145.435 66.9141 144.563C66.4967 143.493 65.9571 142.474 65.3059 141.528C65.7638 143.562 66.1047 143.391 66.8182 145.021C67.2224 146.118 67.7589 147.163 68.4157 148.131ZM78.5226 143.082C78.8634 142.752 78.5226 142.273 78.4054 142.145C77.8516 140.803 77.5108 140.516 77.0102 139.472C76.5729 138.401 76.0344 137.374 75.4021 136.405C75.8707 138.535 76.1583 138.194 76.9251 139.951C77.3178 141.061 77.855 142.113 78.5226 143.082ZM82.2394 147.737C81.9199 147.151 81.6963 146.086 80.6526 145.82C79.5876 145.82 77.4575 146.959 77.2445 147.8C76.9463 148.865 79.0018 153.434 80.152 153.594C81.217 153.594 83.4429 152.529 83.5707 151.581C83.6985 150.633 82.6761 148.535 82.2394 147.737ZM80.0455 153.221C79.5343 153.051 79.2893 152.401 78.842 151.347C78.7142 151.049 77.2233 148.855 77.5215 147.854C77.7345 147.14 79.4385 146.469 80.4076 146.405C80.9401 146.49 81.2064 147.108 81.4726 147.651C81.9625 148.876 83.3896 150.612 83.2405 151.56C83.0701 152.699 80.5674 153.36 80.0455 153.221ZM89.5559 147.641C89.0234 146.299 88.065 144.35 88.1076 144.446C88.0123 144.095 87.8338 143.772 87.5872 143.505C87.3406 143.238 87.0332 143.035 86.6911 142.912C86.0235 142.907 85.374 143.129 84.8486 143.54C84.3268 143.86 83.5068 144.179 83.2618 144.85C83.1369 145.172 83.1369 145.529 83.2618 145.851C83.6998 146.96 84.1975 148.045 84.7528 149.1C85.051 149.76 85.4344 150.569 86.1906 150.687C87.1704 150.687 89.3003 149.771 89.6411 148.706C89.6988 148.531 89.721 148.347 89.7063 148.165C89.6917 147.982 89.6406 147.804 89.5559 147.641ZM86.2651 150.239C85.722 150.09 83.4216 146.043 83.5813 145.031C83.7411 144.02 85.5409 143.445 86.5526 143.381C87.1277 143.466 89.6092 147.907 89.3856 148.706C89.1619 149.504 87.181 150.165 86.2651 150.239ZM94.6679 141.719C94.0289 140.303 93.784 139.973 93.0811 139.802C92.2048 139.86 91.3679 140.188 90.6848 140.739C89.737 141.219 89.3856 141.9 89.7051 142.752C90.1265 143.86 90.6064 144.944 91.1428 146.001C91.6007 147.012 91.9948 147.492 92.5593 147.566C93.3474 147.673 95.8608 146.65 96.0951 145.543C96.17 145.221 96.1363 144.884 95.9992 144.584C94.7851 141.389 94.4443 141.719 94.6679 141.719ZM92.6551 147.161C91.9735 146.97 91.7179 146.096 91.3451 145.244C91.0789 144.616 89.6731 142.923 90.0139 141.858C90.2801 141.038 91.8883 140.367 92.9533 140.303C93.6455 140.409 93.8905 141.368 94.2632 142.103C95.1259 143.604 95.8927 144.701 95.8288 145.436C95.701 146.405 93.4645 147.119 92.6551 147.161ZM96.1163 138.258C96.5104 140.143 97.6286 141.176 97.8203 142.209C97.2346 142.422 96.308 143.274 96.6595 143.572C97.2195 143.75 97.7882 143.9 98.3635 144.02C98.8108 144.084 98.8428 144.02 99.2155 144.786C99.4605 144.542 99.4711 144.478 99.3326 144.233C101.697 144.233 102.613 143.37 104.434 141.538C104.759 141.244 105.058 140.924 105.329 140.58C106.149 141.528 110.654 140.079 109.397 138.002C110.273 137.504 111.247 137.203 112.251 137.118C112.412 137.47 112.628 137.793 112.89 138.077C113.135 137.832 113.06 137.694 112.72 137.012C114.199 136.81 115.696 136.778 117.182 136.916C119.749 137.566 121.868 135.606 120.526 134.286C117.523 132.156 110.941 132.965 107.469 134.147C107.159 133.769 106.744 133.491 106.276 133.348C105.608 133.34 104.958 133.562 104.434 133.977L103.901 134.275C103.718 134.338 103.55 134.439 103.409 134.572C103.268 134.706 103.158 134.868 103.085 135.048C103.012 135.227 102.979 135.421 102.988 135.615C102.996 135.808 103.046 135.998 103.135 136.171C103.603 136.895 103.231 136.692 102.943 137.236C100.366 140.335 102.506 139.887 99.748 136.479C100.099 138.141 100.525 138.279 101.09 139.611C100.364 140.69 99.3387 141.534 98.1398 142.039C96.979 139.515 97.16 139.302 96.1163 138.258ZM108.896 137.939C109.027 138.127 109.119 138.341 109.167 138.566C109.215 138.79 109.217 139.023 109.173 139.248C108.336 140.008 107.274 140.475 106.149 140.58C105.947 140.482 105.757 140.36 105.584 140.218C106.497 139.197 107.645 138.415 108.928 137.939H108.896ZM106.766 133.742C107.714 134.456 106.372 133.742 103.571 136.213C102.677 134.488 106.234 133.412 106.788 133.742H106.766ZM45.9868 165.639C45.7525 165.203 45.4756 163.999 44.3999 163.722C43.5237 163.78 42.6868 164.107 42.0037 164.659C40.4807 165.192 40.7683 167.002 41.6948 168.312C42.5255 170.229 43.0474 171.39 43.8994 171.507C45.3265 171.507 47.7866 170.304 47.2009 168.483C46.9029 167.493 46.4957 166.539 45.9868 165.639ZM43.8568 171.167C43.1645 170.975 42.8983 170.102 42.5468 169.25C42.4723 169.079 41.8759 168.11 41.9398 168.185C41.3647 166.917 40.6085 165.597 41.8865 165.085C42.5448 164.618 43.3179 164.338 44.123 164.276C44.6555 164.361 44.9218 164.979 45.188 165.522C45.9761 167.471 47.6056 168.824 46.7003 169.995C45.9076 170.661 44.9305 171.07 43.8994 171.167H43.8568ZM53.3246 165.288C51.4183 161.443 51.3863 161.028 50.4491 160.815C49.7434 160.795 49.0521 161.017 48.4895 161.443C47.4991 161.997 46.5832 162.583 47.0731 163.573C47.6801 165.107 48.5747 166.843 48.5215 166.768C48.8836 167.546 49.4054 168.589 50.2787 168.451C51.61 168.27 53.9423 167.205 53.3246 165.288ZM49.874 167.95C49.4693 167.801 49.2244 167.354 48.9155 166.598C48.3511 165.171 46.7855 163.467 47.5097 162.412C48.2819 161.695 49.2715 161.257 50.3213 161.166C51.0349 161.273 51.2692 162.316 51.6419 162.966C52.0147 163.616 52.5685 164.595 53.0371 165.522C53.9317 167.375 50.2361 168.089 49.874 167.95ZM55.3055 158.099C54.8582 158.387 54.0062 158.504 53.5163 159.228C53.3439 159.565 53.2714 159.945 53.3072 160.322C53.343 160.7 53.4858 161.059 53.7187 161.358C54.9221 163.179 55.3695 166.214 57.3823 165.181C58.9479 164.361 60.0022 164.191 59.8105 162.604C59.7574 162.127 59.5813 161.672 59.2993 161.283C58.5751 160.293 58.0319 156.374 55.3055 158.099ZM57.3503 164.755C56.1682 165 55.7528 164.553 54.8263 162.828C53.7613 160.815 53.1542 160.069 53.6548 159.462C54.3842 158.761 55.3308 158.329 56.3386 158.237C57.3397 158.237 57.3184 159.601 58.7987 161.677C60.5134 164.095 57.5101 164.734 57.3503 164.755ZM71.0676 151.358C70.8681 151.145 70.6076 151 70.322 150.942C69.4346 150.964 68.5783 151.274 67.8832 151.826C66.3603 152.359 66.6371 154.169 67.5637 155.468C68.3944 157.385 68.9162 158.546 69.7789 158.663C71.0547 158.551 72.2412 157.961 73.1017 157.013C73.1925 156.797 73.2393 156.565 73.2393 156.331C73.2393 156.097 73.1925 155.865 73.1017 155.649C72.6072 154.139 71.9237 152.697 71.0676 151.358ZM69.8215 158.376C69.1186 158.184 68.863 157.311 68.5116 156.459C68.437 156.288 67.0525 154.148 67.1377 153.083C67.404 152.284 68.9908 151.602 70.0877 151.517C70.6202 151.602 70.8865 152.22 71.1527 152.763C71.419 153.306 71.9622 154.18 72.8142 155.873C72.9488 156.132 72.9902 156.429 72.9313 156.714C72.6544 157.716 70.7054 158.312 69.8215 158.376ZM61.9086 159.643C60.7051 157.375 60.9926 157.204 59.8637 156.075C60.0094 156.863 60.3138 157.613 60.7583 158.28C61.6529 159.814 61.9192 161.251 62.9523 162.54C63.2824 162.252 61.9725 159.75 61.9086 159.643ZM66.1046 158.887C65.7682 158.089 65.3878 157.311 64.9651 156.555C64.6642 155.651 64.1616 154.828 63.4954 154.148C63.8575 155.852 64.2941 155.926 64.9757 157.524C67.159 162.678 66.8501 160.218 66.1046 158.887ZM75.7323 152.742C74.5288 150.474 74.8164 150.303 73.6875 149.174C73.8428 149.959 74.1464 150.708 74.582 151.379C75.4553 152.912 75.7535 154.361 76.712 155.639C76.9463 155.49 77.0955 155.298 75.7323 152.742ZM88.5761 162.071C89.0699 161.862 89.4869 161.504 89.7704 161.049C90.0539 160.594 90.1902 160.062 90.1605 159.526C90.1309 158.99 89.9368 158.477 89.6048 158.055C89.2728 157.634 88.8189 157.325 88.305 157.171C87.7911 157.017 87.2422 157.025 86.733 157.194C86.2239 157.363 85.7792 157.685 85.4596 158.116C85.1399 158.547 84.9609 159.066 84.9469 159.602C84.9329 160.138 85.0845 160.666 85.3811 161.113C85.7611 161.568 86.2665 161.902 86.8346 162.072C87.4026 162.243 88.0083 162.242 88.5761 162.071ZM89.0341 161.326C88.7846 161.504 88.5012 161.628 88.2016 161.691C87.9019 161.754 87.5925 161.754 87.2926 161.693C86.9927 161.631 86.7089 161.507 86.4588 161.331C86.2087 161.154 85.9977 160.928 85.8391 160.666C85.5998 160.274 85.4813 159.821 85.4984 159.363C85.5154 158.904 85.6673 158.461 85.935 158.088C87.6922 155.671 91.8137 159.249 89.0341 161.326ZM101.516 166.512C101.335 166.331 100.888 166.012 100.632 166.065C100.262 166.206 99.905 166.38 99.5669 166.587C91.8989 170.229 89.5453 171.507 89.7796 171.38C87.1597 172.849 86.1693 172.828 86.0415 173.51C86.0415 174.042 86.1586 173.882 86.4142 175.182C86.5229 176.215 86.7334 177.235 87.0426 178.227H87.3301C87.5325 178.164 104.53 169.707 104.647 169.644C104.764 169.58 104.998 169.505 105.052 169.356C105.158 169.005 103.678 168.366 101.516 166.512ZM87.2236 177.951C87 176.96 86.8509 175.948 86.7231 174.926C86.7231 174.798 86.4781 173.435 86.5314 173.424C88.2567 172.743 97.5754 167.929 99.4178 167.034C99.7082 166.929 99.9926 166.808 100.27 166.672C100.866 166.353 101.186 166.811 101.633 167.162C103.337 168.504 103.923 168.951 104.572 169.367C87.0851 177.961 92.0268 175.597 87.2236 177.951ZM101.974 40.5762C102.219 40.5762 102.08 40.5762 102.538 40.4804C101.949 40.337 101.418 40.0175 101.015 39.5645V39.3408L100.941 39.5964C100.792 40.1396 101.452 40.5336 101.974 40.5762ZM104.37 41.5347C104.262 41.6077 104.179 41.7126 104.134 41.8347C104.088 41.9569 104.081 42.0902 104.115 42.2163C104.338 42.6423 104.892 42.1205 104.722 41.5773C104.839 41.5704 104.953 41.5393 105.057 41.4862C105.162 41.4331 105.254 41.3589 105.329 41.2685L105.51 40.9809L105.19 41.0874C105.009 41.0874 103.933 41.2152 103.838 41.0874L103.955 41.2791C104.093 41.4495 104.232 41.4708 104.37 41.5347Z" fill="black"/>
<path d="M101.175 41.3754C101.505 41.3754 101.814 40.6299 101.452 40.4595C100.877 40.1932 100.504 41.3754 101.175 41.3754ZM100.163 44.5384C100.34 44.8637 100.407 45.237 100.355 45.6034C100.454 45.5344 100.538 45.4463 100.603 45.3443C100.667 45.2423 100.711 45.1284 100.731 45.0093C100.75 44.8902 100.746 44.7684 100.718 44.6509C100.69 44.5335 100.639 44.4228 100.568 44.3254C100.4 44.1367 100.19 43.9901 99.9551 43.8976C99.7201 43.8051 99.4667 43.7692 99.2153 43.7929C99.6024 43.9343 99.9345 44.1955 100.163 44.5384ZM31.7475 68.1601C32.362 68.5285 33.0801 68.6856 33.7923 68.6074H34.8573C35.0483 68.5751 35.2442 68.5882 35.4292 68.6455C35.6142 68.7029 35.7831 68.8029 35.9223 68.9376C35.5176 69.1186 35.0703 69.2571 35.0703 69.8002C36.162 72.6598 37.5093 75.4151 39.096 78.0327C41.1994 81.9356 44.2316 85.2605 47.9249 87.7135C50.4304 89.0854 53.0625 90.2124 55.7846 91.0789C55.412 88.2761 54.8858 85.4958 54.2084 82.7506C54.0593 82.0051 51.5033 73.4851 51.3116 73.4851C50.4921 73.7564 49.607 73.7564 48.7875 73.4851C47.2003 72.9104 45.7126 72.0911 44.3784 71.0569C43.4945 70.4392 42.5892 69.8961 41.684 69.2677C41.3858 69.0654 40.3208 69.3423 40.5231 68.6713C40.7681 65.2953 39.9054 64.7628 37.211 65.4763C35.9862 65.7745 31.002 66.6265 31.3535 67.8193C31.4476 67.9699 31.5849 68.0887 31.7475 68.1601ZM37.7861 65.668C38.5209 65.5828 39.4155 65.4657 39.9161 66.1792C40.2462 66.6904 40.1078 67.1377 40.1078 67.7128V68.8737C38.8559 68.7925 37.6001 68.7925 36.3483 68.8737C36.2077 68.6516 36.0034 68.477 35.7622 68.3725C35.521 68.268 35.2539 68.2386 34.9958 68.2879C33.2705 68.2879 32.2374 68.2879 32.0031 67.8193C31.7688 67.3507 32.5463 67.0312 32.8977 66.9034C34.4747 66.311 36.1151 65.9036 37.7861 65.6893V65.668ZM144.84 149.324L143.445 148.163C142.991 147.823 142.435 147.65 141.869 147.673C141.436 147.724 141.028 147.899 140.693 148.177C140.357 148.454 140.11 148.823 139.979 149.238C139.849 149.653 139.841 150.098 139.957 150.517C140.073 150.937 140.308 151.314 140.633 151.603L142.018 152.764C142.213 152.946 142.446 153.085 142.699 153.171C142.952 153.258 143.221 153.289 143.487 153.264C143.946 153.263 144.392 153.119 144.765 152.852C145.137 152.585 145.417 152.209 145.566 151.775C145.715 151.342 145.725 150.873 145.595 150.434C145.465 149.994 145.201 149.606 144.84 149.324ZM144.68 152.018C144.423 152.324 144.056 152.518 143.658 152.558C143.261 152.598 142.863 152.48 142.55 152.231L141.155 151.07C140.839 150.813 140.637 150.441 140.595 150.036C140.553 149.63 140.674 149.225 140.931 148.908C141.188 148.592 141.561 148.391 141.966 148.349C142.371 148.307 142.777 148.428 143.093 148.685L144.478 149.846C144.777 150.117 144.963 150.492 144.998 150.894C145.034 151.297 144.916 151.698 144.669 152.018H144.68ZM150.527 136.895C150.053 136.547 149.463 136.397 148.88 136.475C148.298 136.554 147.769 136.855 147.404 137.317C147.04 137.778 146.868 138.362 146.926 138.947C146.984 139.532 147.267 140.072 147.715 140.452L149.228 141.613C151.635 143.402 154.191 139.899 152.039 138.067L150.527 136.895ZM151.869 140.751C151.605 141.07 151.225 141.273 150.813 141.315C150.4 141.357 149.987 141.234 149.664 140.974L148.141 139.813C147.861 139.547 147.693 139.183 147.671 138.797C147.649 138.411 147.775 138.031 148.023 137.734C148.271 137.437 148.623 137.246 149.007 137.199C149.391 137.152 149.778 137.253 150.09 137.481L151.603 138.652C151.91 138.9 152.11 139.256 152.159 139.648C152.209 140.039 152.105 140.434 151.869 140.751Z" fill="black"/>
<path d="M203.628 123.21C203.441 122.891 203.162 122.636 202.827 122.478C202.493 122.32 202.119 122.266 201.753 122.323C201.388 122.381 201.048 122.547 200.779 122.8C200.509 123.053 200.322 123.381 200.241 123.742H198.559C190.722 124.136 183.355 127.603 178.057 133.391C177.963 133.356 177.877 133.302 177.803 133.232C177.73 133.163 177.672 133.079 177.631 132.987C177.336 132.188 177.097 131.37 176.918 130.537C176.776 130.265 176.672 129.975 176.609 129.674C176.66 128.776 176.814 127.886 177.067 127.023C177.818 123.093 177.997 119.075 177.599 115.095C178.226 114.529 178.947 114.079 179.729 113.763C179.932 113.997 180.188 114.179 180.475 114.295C180.761 114.411 181.072 114.458 181.38 114.431C181.688 114.404 181.986 114.304 182.248 114.14C182.51 113.976 182.73 113.752 182.889 113.487C183.049 113.221 183.143 112.922 183.164 112.613C183.185 112.305 183.133 111.995 183.012 111.711C182.891 111.426 182.704 111.174 182.466 110.975C182.229 110.777 181.948 110.637 181.646 110.568C181.393 110.503 181.128 110.49 180.869 110.532C180.611 110.574 180.364 110.669 180.143 110.811C179.923 110.953 179.735 111.139 179.59 111.358C179.446 111.576 179.348 111.822 179.303 112.081C179.293 112.254 179.293 112.429 179.303 112.603C178.593 112.921 177.929 113.337 177.333 113.838C175.682 103.188 169.122 92.5379 159.665 87.8413L154.425 85.445C154.175 85.3993 153.923 85.3708 153.669 85.3598C155.035 86.382 156.125 87.7282 156.841 89.277C157.557 90.8257 157.876 92.5284 157.769 94.2313C157.746 94.5941 157.638 94.9463 157.453 95.2592C157.268 95.5721 157.011 95.8366 156.704 96.0311C157.212 96.9748 157.572 97.9915 157.769 99.0451C158.67 102.688 159.871 106.25 161.358 109.695C161.06 108.982 159.473 108.534 158.845 108.193C152.082 104.381 144.393 103.039 143.381 103.209C142.774 102.144 141.4 99.4178 141.443 99.5243C140.953 98.3954 140.303 97.4689 139.068 97.5967C137.129 97.5967 134.531 95.4667 134.084 92.474C133.83 90.3545 134.049 88.2053 134.723 86.1799C131.611 88.2081 129.047 90.9713 127.256 94.2255C125.465 97.4797 124.504 101.125 124.456 104.839C123.529 104.37 121.793 105.531 121.495 105.403C121.389 105.339 109.514 81.3128 109.088 80.2159C108.46 78.8633 107.597 77.0209 105.478 77.3617C104.78 77.4914 104.115 77.7554 103.518 78.1391C103.518 78.1391 73.3892 92.9 71.0462 94.1141C73.9004 86.6591 74.7311 78.0752 72.4626 67.9471C73.8869 73.1886 74.4339 78.6297 74.0814 84.0499C75.561 82.1339 76.8521 80.0796 77.9367 77.9155C78.7554 76.0922 79.3732 74.1853 79.7792 72.2284C83.6025 71.9728 90.7274 66.4561 93.5603 63.4528C96.2326 65.5825 99.1244 67.4212 102.187 68.9375C109.716 72.8141 117.949 73.9856 123.274 73.123C124.158 72.9739 125.276 73.1869 125.904 72.058C125.951 72.2674 126.077 72.4505 126.256 72.5692C127.108 73.0697 127.481 72.7502 128.78 72.8674C129.078 73.8152 129.845 73.3466 129.611 72.8674C129.855 72.8674 129.983 72.9952 130.164 72.7715C130.289 72.5211 130.323 72.2348 130.26 71.9621C130.92 71.6426 131.048 70.8971 130.122 70.5457C130.188 70.3672 130.205 70.1743 130.171 69.987C130.137 69.7997 130.054 69.6249 129.93 69.4807C129.764 69.347 129.582 69.2359 129.387 69.1505C127.044 47.0198 128.322 56.264 127.438 47.3819C131.261 46.3915 132.22 41.6096 132.401 38.191C132.817 35.4983 132.817 32.7577 132.401 30.065C132.109 27.8458 131.315 25.7224 130.079 23.8561C129.64 23.1667 129.018 22.6127 128.283 22.2554C127.548 21.8982 126.728 21.7518 125.915 21.8326C125.734 21.8326 125.734 21.9391 125.574 21.9071C123.148 21.9386 120.76 21.3011 118.673 20.0647C108.875 14.6545 106.351 8.76501 100.419 6.21966C99.3074 5.66865 98.0968 5.34618 96.8585 5.2713C95.6202 5.19643 94.3795 5.3707 93.2098 5.78377C92.0401 6.19685 90.9651 6.84036 90.0484 7.67622C89.1318 8.51207 88.3921 9.5233 87.8732 10.6501C84.3054 17.9453 88.182 26.231 94.0928 30.9916C95.03 31.7264 94.3484 32.0566 94.5401 32.9831C93.9344 33.1348 93.3864 33.4606 92.9639 33.9203C92.8022 34.1692 92.7262 34.464 92.7473 34.76C92.7685 35.056 92.8856 35.337 93.081 35.5604C92.8249 35.6646 92.6073 35.8454 92.4578 36.078C92.3084 36.3106 92.2344 36.5837 92.2461 36.8599C92.2578 37.1361 92.3544 37.402 92.523 37.6212C92.6915 37.8404 92.9236 38.0022 93.1875 38.0845C92.8814 38.3988 92.7023 38.8152 92.6846 39.2536C92.6669 39.692 92.8119 40.1214 93.0917 40.4594C93.2514 40.6831 93.6668 40.6831 93.8585 40.9067C94.0502 41.1304 93.7626 41.6629 93.4644 41.8652C93.0707 42.1241 92.6223 42.2882 92.1545 42.3445C91.5261 42.3445 91.2492 41.8013 90.9936 41.2795C89.5452 38.0206 87.7986 30.491 81.2063 26.05C75.4742 22.4491 68.8028 20.6293 62.0363 20.8208C58.5644 20.8208 55.3481 20.6291 52.4513 22.8124C51.5883 22.1105 50.6851 21.4598 49.7462 20.8634C49.4141 20.6985 49.0515 20.6043 48.6812 20.5865C48.2871 20.5865 47.9676 20.9167 48.3404 21.3001C48.1103 21.2318 47.8686 21.2117 47.6304 21.241C47.3922 21.2704 47.1626 21.3485 46.9559 21.4705C46.7535 21.7261 46.8068 22.1095 47.3925 22.3544C46.9878 22.2586 46.6896 22.7804 46.9346 23.2064C47.2884 23.628 47.759 23.9356 48.2871 24.0904C47.5949 24.0371 47.5097 25.2406 48.7877 25.379C49.5678 25.3886 50.3475 25.3388 51.12 25.2299C51.4695 26.6325 52.2842 27.8752 53.4311 28.7551C56.9906 31.1053 61.0423 32.6065 65.2739 33.1429C67.0418 33.3985 68.9481 33.1429 70.6734 33.5156C70.9824 36.8876 72.1402 40.1265 74.0388 42.9302C71.9088 43.5373 67.7021 46.7855 66.03 48.1487C65.1567 48.8623 64.1982 49.8634 64.4858 50.9603C63.6867 51.1273 62.9082 51.3808 62.1641 51.7165C61.1078 52.2821 60.0935 52.9227 59.1288 53.6335C56.3316 55.6675 54.1859 58.4709 52.9531 61.7024C51.7203 64.9338 51.4534 68.4539 52.185 71.8343C55.199 85.6793 59.0649 88.6294 55.38 102.059C49.5012 104.913 13.845 122.475 12.6309 123.04C11.7271 123.421 10.8638 123.892 10.0536 124.445C8.30701 125.819 9.26551 127.715 10.0536 129.238C10.0536 129.238 35.6775 180.944 37.7436 185.278C37.9981 185.976 38.5191 186.543 39.1921 186.857C39.865 187.171 40.635 187.204 41.3327 186.95C41.3562 188.017 41.3171 189.083 41.2155 190.145C41.2155 197.749 40.9812 196.769 40.9812 202.009C40.8641 204.022 41.0664 203.074 40.5446 203.852C40.5446 204.352 40.8428 204.384 41.0132 204.832L42.4616 207.675C42.6 207.675 139.281 159.995 143.456 157.865C149.228 163.648 155.053 166.108 162.349 167.674C159.292 171.22 156.491 173.084 157.407 174.692C157.922 175.385 158.653 175.886 159.484 176.119C162.892 177.621 170.783 180.645 171.369 180.667C171.425 180.643 171.474 180.607 171.513 180.56C171.552 180.514 171.579 180.459 171.593 180.4C171.657 180.092 171.316 179.58 170.592 178.846C169.814 177.866 169.016 176.822 168.121 175.821C168.655 175.429 169.234 175.104 169.846 174.852C170.56 174.639 170.847 174.586 170.975 174.33C171.103 174.074 170.56 173.35 170.187 173.137C169.811 172.803 169.456 172.448 169.122 172.072C168.994 171.944 169.122 171.827 169.356 171.529C171.731 169.165 172.551 169.687 173.68 169.942C174.543 170.134 177.152 170.602 177.44 170.634C177.958 170.829 178.513 170.907 179.066 170.863C179.618 170.819 180.154 170.653 180.635 170.379C181.891 169.42 182.222 168.249 182.765 168.078C183.308 167.908 185.906 168.664 185.885 169.143C185.8 170.57 180.88 172.541 188.643 172.839C188.367 173.627 188.1 174.724 187.781 175.597C187.578 176.247 186.95 177.12 187.334 177.674C187.362 177.715 187.4 177.747 187.445 177.767C187.49 177.788 187.54 177.796 187.589 177.791C188.473 177.791 190.986 174.692 190.997 174.66C192.449 173.391 193.549 171.77 194.192 169.953C194.544 168.185 193.319 167.003 191.934 166.012C190.159 164.775 188.273 163.705 186.3 162.817C193.372 152.785 190.23 140.175 179.154 133.753C183.961 128.647 190.468 125.473 197.451 124.829C198.386 124.733 199.328 124.733 200.263 124.829C200.426 125.181 200.693 125.474 201.028 125.67C201.363 125.865 201.75 125.953 202.136 125.922C202.523 125.89 202.89 125.741 203.19 125.494C203.489 125.248 203.705 124.915 203.809 124.541C203.886 124.321 203.91 124.085 203.878 123.854C203.847 123.622 203.761 123.402 203.628 123.21ZM175.469 132.06C175.054 131.879 174.617 131.709 174.202 131.549C176.332 126.128 175.927 119.365 175.267 117.544C175.267 117.203 175.32 117.107 175.565 116.99L176.907 115.744C177.307 121.225 176.822 126.734 175.469 132.06ZM169.91 126.203C169.931 126.354 169.931 126.509 169.91 126.661C170.056 127.904 169.872 129.164 169.378 130.313C169.147 130.256 168.912 130.221 168.675 130.207C168.994 128.845 169.407 127.508 169.91 126.203ZM168.462 126.842C168.089 128.002 167.855 129.163 167.567 130.25C167.262 130.25 166.961 130.184 166.683 130.058C166.374 129.653 166.46 128.354 166.396 127.853C165.767 123.753 164.425 119.259 163.722 116.415C165.799 118.29 167.527 120.518 168.824 122.997C169.335 124.52 169.644 123.402 168.462 126.842ZM170.23 129.355C170.538 128.487 170.686 127.571 170.666 126.65C170.73 125.585 170.23 125.201 170.666 124.52C171.208 123.177 171.89 121.896 172.7 120.697C173.17 122.85 173.307 125.062 173.105 127.257C172.972 128.514 172.733 129.757 172.392 130.974C172.392 131.08 171.848 130.803 169.974 130.505C169.612 130.473 169.772 130.644 170.23 129.355ZM173.222 120.452C173.175 120.339 173.151 120.217 173.151 120.095C173.151 119.972 173.175 119.851 173.222 119.738C173.378 119.489 173.568 119.263 173.787 119.067C174.097 118.66 174.431 118.273 174.788 117.906C175.727 122.449 175.447 127.159 173.978 131.56L172.668 131.112C173.852 127.681 174.044 123.986 173.222 120.452ZM173.467 104.189C174.446 106.251 175.258 108.387 175.895 110.579C176.239 111.852 176.492 113.147 176.652 114.456C176.054 114.895 175.488 115.375 174.958 115.893C172.69 107.011 166.779 97.5328 161.401 91.3984C159.889 89.699 158.176 88.1899 156.299 86.9041C164.08 90.1722 170.252 96.3861 173.467 104.189ZM159.047 102.059C158.951 101.921 157.247 96.2441 157.215 96.1483C158.866 95.4134 158.046 91.835 157.79 90.5996C157.485 89.1231 156.743 87.7724 155.66 86.723C156.576 87.394 157.162 88.001 157.695 88.3844C160.578 90.9356 163.11 93.8579 165.224 97.0748C169.049 102.531 171.986 108.559 173.925 114.935C174.415 116.394 174.5 116.373 173.925 116.799C173.436 117.299 172.974 117.825 172.541 118.375C171.162 114.043 168.694 110.138 165.373 107.033C163.911 105.661 162.336 104.414 160.666 103.305C160.273 102.962 159.86 102.642 159.431 102.347H159.356C159.229 102.285 159.122 102.189 159.047 102.07V102.059ZM159.399 102.773C168.824 109.163 170.645 115.925 171.848 118.29C172.498 119.589 171.763 118.854 169.718 123.167C168.558 120.068 165.959 117.704 163.52 115.787C158.099 98.864 160.421 106.031 159.399 102.783V102.773ZM162.594 129.824C159.005 129.983 157.695 130.889 157.034 130.25C153.616 127.055 150.506 123.987 148.759 119.674C148.088 118.002 148.014 115.531 149.824 114.243L149.696 114.04C148.982 114.534 148.43 115.229 148.109 116.036C147.789 116.844 147.715 117.728 147.897 118.577C148.264 120.309 148.99 121.945 150.027 123.38C151.744 126.078 153.986 128.403 156.619 130.218C157.077 130.665 156.992 130.59 157.098 130.665C155.607 131.027 155.682 131.027 155.415 130.963C155.149 130.899 152.742 128.95 152.87 129.057C149.617 126.447 146.526 123.641 143.615 120.654C139.739 116.671 135.979 111.687 136.554 105.872C136.735 103.482 137.663 101.209 139.206 99.3752C139.505 98.8719 139.946 98.468 140.474 98.2144C144.659 108.63 154.968 120.707 162.54 129.834L162.594 129.824ZM134.073 87.3301C132.656 92.1119 134.424 95.9246 137.374 97.4902C138.18 97.8808 139.067 98.0777 139.962 98.0653C139.1 98.0653 133.306 104.966 136.98 112.784C140.111 120.047 147.63 125.361 153.403 130.037C154.106 130.484 154.255 130.718 155 131.176C153.242 131.691 151.548 132.406 149.952 133.306C141.091 127.662 132.177 118.045 129.387 107.991C128.48 104.412 128.431 100.669 129.245 97.0669C130.06 93.4652 131.714 90.107 134.073 87.2662V87.3301ZM154.425 133.743C154.864 133.773 155.276 133.963 155.586 134.275L156.747 135.788C156.889 135.974 156.994 136.186 157.054 136.413C157.115 136.639 157.13 136.876 157.098 137.108C157.031 137.386 156.888 137.639 156.685 137.84C156.482 138.042 156.228 138.183 155.949 138.248C155.671 138.313 155.381 138.299 155.11 138.209C154.839 138.119 154.598 137.955 154.414 137.737L153.254 136.224C153.069 136.003 152.951 135.733 152.914 135.447C152.878 135.161 152.924 134.87 153.047 134.609C153.17 134.349 153.365 134.128 153.609 133.975C153.854 133.821 154.137 133.741 154.425 133.743ZM125.67 99.6628C126.49 95.4028 128.972 91.3025 133.551 87.4579C132.628 88.4769 131.83 89.6032 131.176 90.8126C124.083 103.294 129.579 115.893 139.92 125.862C142.842 128.802 146.136 131.347 149.718 133.434C148.447 134.18 147.221 134.998 146.043 135.883C143.154 134.035 140.488 131.859 138.099 129.398C133.007 124.411 129.089 118.354 126.629 111.665C125.153 107.827 124.82 103.644 125.67 99.6202V99.6628ZM104.37 78.5332C108.47 76.4032 106.415 79.5343 120.835 105.595C120.675 105.286 116.468 107.246 115.648 107.672C113.785 103.901 103.933 84.0179 103.71 83.6452C103.486 83.2724 103.348 83.134 102.89 83.2085C101.742 83.6228 100.645 84.1658 99.6201 84.8273L68.3943 100.249C68.5771 99.8359 68.7833 99.4341 69.012 99.0451C69.4806 98.2463 70.8225 95.1685 70.929 94.9129C71.9514 94.5295 65.4017 98.8853 104.37 78.5332ZM129.153 73.0484C129.136 72.9325 129.084 72.8246 129.003 72.7396C128.918 72.6118 128.79 72.6224 127.459 72.6224C127.001 72.6224 126.394 72.6224 126.394 72.0686C126.385 71.945 126.4 71.8207 126.441 71.7035C126.481 71.5862 126.545 71.4785 126.629 71.387C126.668 71.6797 126.818 71.9463 127.048 72.1323C127.277 72.3183 127.569 72.4098 127.864 72.3881C128.279 72.3258 128.675 72.1731 129.025 71.9408C128.854 72.0367 129.142 72.7502 129.248 72.8567C129.355 72.9632 129.216 73.2614 129.174 73.0484H129.153ZM130.463 71.2699C130.463 71.4722 130.068 71.5681 130.068 71.5468L129.813 70.8119C130.079 70.8439 130.516 71.0356 130.484 71.2699H130.463ZM129.536 69.7256C129.6 69.7296 129.662 69.7464 129.72 69.775C129.777 69.8036 129.828 69.8434 129.87 69.892C129.912 69.9407 129.943 69.9972 129.963 70.0583C129.982 70.1193 129.989 70.1836 129.983 70.2475C129.983 70.4179 129.898 70.5244 129.536 70.3966C129.511 70.173 129.518 69.9471 129.557 69.7256H129.536ZM128.822 70.4392C128.631 70.4392 128.215 70.3753 128.183 70.4392C128.151 70.5031 128.993 70.9823 129.248 71.1421C129.464 71.309 129.636 71.5242 129.753 71.7703C129.869 72.0163 129.926 72.2863 129.919 72.5585C129.876 72.5989 129.819 72.6214 129.76 72.6214C129.7 72.6214 129.643 72.5989 129.6 72.5585C129.344 72.3242 129.355 72.0047 129.28 71.7065C129.206 71.4083 129.046 71.2805 128.78 71.4722C128.601 71.6453 128.382 71.7717 128.142 71.8404C127.902 71.9091 127.65 71.918 127.406 71.8663C126.597 71.5468 126.703 70.5137 127.118 69.8534C127.236 69.7256 127.512 69.7363 127.672 69.715H128.737C128.814 69.9491 128.857 70.1929 128.865 70.4392H128.822ZM128.727 69.2251C128.254 69.1808 127.778 69.2241 127.321 69.3529C127.715 69.0547 127.449 68.5541 127.065 68.2879C126.085 67.3507 125.233 66.2857 124.2 65.4337C119.472 61.3441 115.212 59.8957 109.45 59.0437C106.969 55.8487 104.775 52.6537 100.6 49.906C100.334 49.7249 99.7479 49.2563 99.3645 49.0327C99.8482 49.0215 100.318 48.8698 100.717 48.596C100.871 48.7367 101.061 48.8328 101.265 48.874C101.47 48.9153 101.681 48.9002 101.878 48.8303C102.049 48.7344 102.19 48.5932 102.286 48.4222C102.382 48.2512 102.428 48.057 102.421 47.8612C102.673 47.8818 102.924 47.827 103.144 47.7037C103.365 47.5804 103.543 47.3942 103.656 47.1689C103.891 47.3606 104.146 47.1689 104.274 46.9133C104.402 46.6577 104.274 46.3276 104.391 45.9974C104.49 45.6673 104.653 45.3597 104.871 45.0922C105.525 44.0392 106.071 42.9223 106.5 41.7587C106.722 41.3325 106.853 40.8645 106.883 40.3849C108.316 41.4231 109.881 42.2648 111.537 42.8876C112.358 43.2071 113.124 43.6331 113.966 43.9526C117.685 45.3309 121.53 46.3404 125.446 46.9666C125.941 47.172 126.467 47.2944 127.001 47.3287C127.289 54.4216 128.652 67.9258 128.727 69.2251ZM98.2995 41.2369C98.3753 41.0505 98.386 40.844 98.33 40.6507C98.274 40.4575 98.1544 40.2888 97.9907 40.1719C98.4486 39.5116 98.2143 39.5648 99.0024 38.2442C99.2474 37.765 99.5136 37.307 99.8012 36.8597C100.089 36.4124 100.461 36.1781 101.079 36.4976L104.796 38.5105C105.126 38.6915 106.521 39.1814 106.628 39.5755C106.628 41.2156 104.668 45.007 103.326 45.8057C102.965 45.9769 102.564 46.0504 102.165 46.0187C102.442 46.0187 102.165 44.8579 102.165 44.7514C102.105 44.5598 102.027 44.3744 101.931 44.1976C102.011 44.2347 102.098 44.254 102.187 44.254C102.275 44.254 102.362 44.2347 102.442 44.1976C103.06 43.9207 103.188 43.271 103.284 42.6746C103.447 41.974 103.447 41.2452 103.284 40.5446C102.847 42.9302 102.794 43.7396 102.304 43.91C101.814 44.0804 101.473 43.6651 101.175 43.3882C100.553 42.8996 99.8222 42.5673 99.045 42.419H98.3847C98.514 42.2071 98.5839 41.9643 98.5871 41.7161C98.6403 41.6203 98.3208 41.1304 98.2995 41.2369ZM97.586 48.3298C97.586 48.4682 97.586 48.3298 97.4582 48.9262C97.2554 48.8554 97.0787 48.725 96.9514 48.552C96.824 48.3791 96.752 48.1717 96.7446 47.957L97.586 48.3298ZM96.7553 47.6908V47.2222C97.3623 47.8399 97.3623 47.4458 97.3197 47.9677C97.1189 47.9038 96.9287 47.8105 96.7553 47.6908ZM97.4688 29.9692C96.5784 29.2653 95.7581 28.4771 95.0193 27.6155C95.0193 27.296 95.3175 26.231 95.4773 25.2938C95.9246 23.6005 96.7446 22.0988 97.2665 20.4374C98.4077 21.4951 99.602 22.494 100.845 23.4301C100.611 24.346 100.28 25.2406 100.099 26.1671C100.025 26.4973 99.8864 29.3621 99.7692 29.3621C99.4677 29.5163 99.2356 29.7788 99.1196 30.097C98.5939 29.8928 98.0197 29.8484 97.4688 29.9692ZM94.9235 28.2439C94.9767 28.4249 96.5423 29.8094 97.0535 30.2674C96.2654 31.0555 96.4358 30.6401 95.243 31.1833C95.3495 31.0981 94.8383 28.7551 94.9235 28.2439ZM120.771 32.7914C120.771 34.4315 120.217 38.5105 121.836 42.4936C120.558 42.1741 119.237 41.8439 118.045 41.5138C117.482 39.1199 117.21 36.6669 117.235 34.2079C117.253 33.5302 117.314 32.8544 117.416 32.1844C117.374 31.8223 117.15 32.1737 120.771 32.7914ZM105.936 30.1928C105.986 29.1809 106.247 28.1906 106.702 27.2854C107.813 27.7803 108.881 28.3644 109.897 29.032C110.259 29.245 111.218 29.5751 111.356 30.0011C111.495 30.4271 111.165 31.0022 111.069 31.5028C110.633 34.0672 110.789 36.6975 111.527 39.1921L109.194 38.191C109.546 38.3401 109.62 37.126 109.535 36.9556L109.823 36.6574C109.888 36.5016 109.919 36.3337 109.915 36.1649C109.91 35.9962 109.87 35.8303 109.796 35.6783C109.723 35.5262 109.618 35.3916 109.488 35.2831C109.359 35.1747 109.208 35.0949 109.045 35.0492C109.16 34.9467 109.235 34.8073 109.258 34.6552C109.333 34.4608 109.356 34.2505 109.325 34.0446C109.295 33.8388 109.212 33.6441 109.085 33.4795C108.958 33.3148 108.79 33.1856 108.599 33.1043C108.407 33.0229 108.198 32.9922 107.991 33.0151C108.059 32.7879 108.062 32.5462 107.999 32.3176C107.936 32.089 107.811 31.8825 107.636 31.7216C107.462 31.5608 107.247 31.452 107.014 31.4077C106.781 31.3633 106.54 31.3852 106.319 31.4708C106.331 31.0147 106.197 30.5668 105.936 30.1928ZM105.36 30.065C105.19 29.8733 103.88 29.6177 104.029 29.9905C103.926 29.7073 103.744 29.4596 103.504 29.2768C103.265 29.094 102.978 28.9837 102.677 28.959C102.377 28.9344 102.076 28.9964 101.809 29.1376C101.543 29.2789 101.323 29.4936 101.175 29.7562C100.962 29.3941 100.451 29.5751 100.227 29.2982C100.004 29.0213 100.227 27.967 100.227 27.5729C100.306 26.2101 100.627 24.8722 101.175 23.6218C102.815 24.8572 104.498 25.7518 106.01 26.9978C105.911 27.4423 105.854 27.8952 105.84 28.3504C105.797 28.5421 105.318 30.0118 105.36 30.065ZM117.438 41.3434C117.193 41.3434 115.212 40.5659 114.722 40.3849C114.232 40.2038 112.027 39.6394 111.963 39.3199C111.951 39.1852 111.951 39.0498 111.963 38.9152C111.379 36.5756 111.259 34.144 111.612 31.7584L111.942 30.1502C113.109 30.6331 114.3 31.0561 115.51 31.4176C116.056 31.5036 116.581 31.6954 117.054 31.982C116.3 35.0765 116.432 38.321 117.438 41.3434ZM107.853 39.9695C108.641 39.9695 108.918 39.2347 109.013 38.6276C109.831 39.0766 110.695 39.4337 111.591 39.6926C111.827 40.8741 112.267 42.0055 112.89 43.0367C111.842 42.6495 110.815 42.2087 109.812 41.7161C106.905 40.2571 107.022 40.1825 106.969 39.7885C107.261 39.9004 107.571 39.9616 107.885 39.9695H107.853ZM112.113 40.0547C114.999 41.3008 117.576 42.1102 117.438 42.0782C117.828 42.6234 118.184 43.1925 118.503 43.7822C118.946 44.4313 119.493 45.0033 120.121 45.4756C117.991 44.5064 117.927 45.0602 113.625 43.2497C112.912 42.302 112.411 41.2125 112.155 40.0547H112.113ZM118.087 42.0356C118.343 42.1208 119.77 42.4084 121.815 42.7492C122.266 44.2208 123.149 45.5231 124.349 46.4873C123.141 46.2575 121.949 45.948 120.782 45.5608C119.572 44.6704 118.65 43.4447 118.13 42.0356H118.087ZM116.756 31.2898C116.276 31.2606 115.803 31.1638 115.35 31.0022C114.147 30.6748 112.975 30.2436 111.846 29.7136C112.398 27.4499 113.426 25.3297 114.86 23.494C115.116 23.3875 116.234 24.0158 116.468 24.1223C117.222 24.4289 117.955 24.7846 118.662 25.1873C117.898 27.175 117.275 29.2142 116.799 31.2898H116.756ZM112.752 26.0926C112.283 26.9446 111.346 28.4143 111.484 29.4367C110.507 29.0205 109.573 28.5105 108.694 27.9137C108.012 27.541 107.288 27.1895 106.628 26.7529C107.403 24.5505 108.545 22.4947 110.004 20.6717C110.004 20.6717 114.264 22.9295 114.53 23.2064C114.583 23.2597 112.954 25.8157 112.794 26.0926H112.752ZM106.276 26.6996C101.207 23.3236 101.569 23.6111 101.409 23.3555C101.25 23.0999 101.782 22.1947 101.942 21.8645C102.788 20.214 103.975 18.7619 105.424 17.6045C105.424 17.6045 109.418 20.267 109.684 20.5759C108.47 22.0456 106.596 24.6868 106.319 26.6996H106.276ZM102.08 20.8634C101.974 21.0338 100.919 22.8656 101.1 22.9934C99.7586 22.2905 98.7788 21.0232 97.5008 20.2138C97.7031 19.8623 97.9055 19.5109 98.0865 19.1488C99.184 17.4189 100.636 15.9415 102.347 14.8142C103.208 15.676 104.122 16.4834 105.084 17.2318C103.916 18.283 102.917 19.508 102.123 20.8634H102.08ZM97.3304 19.6706C97.0002 19.1168 93.6774 16.3052 93.9756 15.7834C94.158 15.5584 94.3052 15.307 94.4123 15.0379C95.5182 13.3784 96.936 11.9496 98.5871 10.8311C98.9385 10.6075 101.867 14.2178 102.24 14.548C100.151 15.7418 98.4584 17.5231 97.373 19.6706H97.3304ZM97.5647 11.0335C96.2061 11.9855 95.0391 13.1851 94.1247 14.5693C93.851 14.9084 93.658 15.3054 93.5603 15.7301C92.648 14.533 91.8155 13.2771 91.0682 11.9707C91.0275 11.9211 91.0053 11.859 91.0053 11.7949C91.0053 11.7308 91.0275 11.6687 91.0682 11.6192C91.9771 10.2047 93.1614 8.98777 94.5507 8.04081C94.7637 7.89171 94.8915 7.61481 95.1791 7.63611C95.3578 7.66434 95.5264 7.73764 95.669 7.84911C96.703 8.53215 97.617 9.38139 98.3741 10.3625C98.0972 10.4371 97.8842 10.8098 97.6073 11.0335H97.5647ZM92.5485 14.8142C92.9958 15.3893 93.0491 15.6236 93.3686 16.0283C92.3171 18.2315 91.5992 20.5789 91.2386 22.9934C91.2386 22.7272 90.6954 22.3757 89.7582 20.6717C89.2722 19.9819 88.8818 19.2296 88.5974 18.4352C88.9027 16.4891 89.571 14.6177 90.5676 12.9185C90.657 12.7223 90.7677 12.5366 90.8978 12.3647C91.3768 13.227 91.929 14.0466 92.5485 14.8142ZM93.72 16.3691C95.7755 19.1594 96.915 19.5641 96.915 20.2777C95.9091 22.5502 95.1935 24.9404 94.785 27.3919C94.785 27.0937 93.4112 25.8263 93.2301 25.624C92.5897 24.8877 91.9957 24.1123 91.4516 23.3023C91.9189 20.9065 92.6809 18.5778 93.72 16.3691ZM98.9066 43.3562H99.7479C99.7815 43.4824 99.8542 43.5947 99.9557 43.677C100.057 43.7593 100.182 43.8073 100.312 43.8142C100.525 43.8015 100.737 43.8267 100.941 43.8887C100.913 43.9477 100.906 44.014 100.92 44.0775C100.934 44.141 100.968 44.1983 101.018 44.2405C101.067 44.2827 101.129 44.3076 101.194 44.3114C101.259 44.3151 101.323 44.2976 101.377 44.2615C101.282 44.4393 101.21 44.6292 101.164 44.8259C101.111 44.9775 101.111 45.1429 101.164 45.2945C101.183 45.3277 101.208 45.3567 101.239 45.3797C101.269 45.4028 101.304 45.4193 101.341 45.4283C101.377 45.4373 101.416 45.4385 101.453 45.432C101.491 45.4255 101.527 45.4113 101.558 45.3904C101.451 45.6157 101.411 45.8669 101.441 46.1146C101.377 45.8377 100.621 46.1146 100.504 46.1146C100.449 45.9376 100.339 45.783 100.189 45.6736C100.04 45.5643 99.8587 45.5061 99.6734 45.5075H99.4817C99.4944 45.1487 99.455 44.79 99.3645 44.4425C99.2056 44.1666 98.9828 43.9329 98.7149 43.7609C98.79 43.6357 98.8439 43.499 98.8746 43.3562H98.9066ZM129.003 23.3342C131.133 25.4642 131.623 28.9894 131.932 31.8542C132.39 36.1142 131.826 42.5042 128.993 45.7844C128.637 46.2686 128.125 46.6162 127.544 46.7692C126.963 46.9223 126.346 46.8717 125.798 46.6258C121.538 44.0165 120.909 38.4146 121.112 33.4198C121.048 30.735 121.602 28.0715 122.731 25.6346C123.093 24.7905 123.639 24.0374 124.328 23.4301C124.943 22.823 125.767 22.4746 126.631 22.4568C127.495 22.439 128.332 22.753 128.972 23.3342H129.003ZM124.743 22.2692C122.081 23.92 120.771 29.213 120.654 32.3761C119.537 31.9689 118.395 31.6345 117.235 31.375C117.643 29.1824 118.286 27.0401 119.152 24.985C120.217 25.379 120.728 25.4642 121.847 25.8796C121.847 25.4962 122.134 25.8796 119.291 24.6761C119.896 23.5589 120.789 22.6247 121.879 21.971C122.82 22.1533 123.774 22.2636 124.733 22.3012L124.743 22.2692ZM117.991 20.1392C119.124 20.8066 120.314 21.3698 121.548 21.8219C121.24 21.7048 119.674 23.1106 119.024 24.4844V24.5483C119.024 24.7294 118.865 24.6335 118.748 24.6335C117.587 24.0052 116.309 23.5685 115.169 22.9508C115.942 21.9977 116.771 21.0909 117.651 20.2351L117.501 20.054C117.299 20.2244 114.392 22.7272 114.722 22.9295L110.334 20.4907C111.149 19.4048 112.202 18.5197 113.412 17.9027C112.425 18.1995 111.518 18.7166 110.76 19.415C110.59 19.5854 110.355 20.1712 110.228 20.2564C109.919 20.4587 108.587 19.2872 108.183 19.021C107.405 18.4778 106.628 17.956 105.861 17.3383C106.192 17.0118 106.587 16.7579 107.022 16.5928C107.458 16.3366 107.914 16.1158 108.385 15.9325C108.875 15.7621 110.515 15.1657 111.016 15.5171C113.254 17.2092 115.579 18.784 117.981 20.2351L117.991 20.1392ZM111.005 15.0805C110.622 14.7503 108.875 15.2722 108.417 15.3893C107.386 15.6473 106.426 16.1311 105.605 16.8058C104.629 16.1106 103.717 15.3301 102.879 14.4734C102.059 13.877 106.596 12.0133 108.3 12.8546C109.287 13.5149 110.191 14.2908 110.994 15.1657L111.005 15.0805ZM108.183 12.631C106.713 12.0878 103.838 13.025 102.4 13.8877C98.8107 10.3945 99.045 10.6501 99.045 10.5862C100.561 9.61003 102.362 9.17124 104.157 9.34011C105.567 10.3773 106.908 11.505 108.172 12.7162L108.183 12.631ZM99.7053 6.51786C101.047 6.73086 102.613 8.15796 103.688 8.97801C102.943 8.56266 101.708 8.97801 100.951 9.16971C100.16 9.44378 99.3994 9.80076 98.6829 10.2347C97.8993 9.01932 96.7931 8.04584 95.4879 7.42311C96.0914 7.0501 96.7661 6.80708 97.4688 6.70956C98.1997 6.52912 98.9544 6.46443 99.7053 6.51786ZM92.655 6.54981C94.6414 5.74998 96.8444 5.66713 98.8853 6.31551C97.5811 6.40113 96.3103 6.76423 95.1578 7.38051C94.3308 6.93739 93.4119 6.69308 92.474 6.66696L92.655 6.54981ZM91.7604 6.96516C92.771 6.76568 93.8197 6.95186 94.6998 7.48701L94.9874 7.63611C94.2206 7.63611 93.2088 8.78631 92.6657 9.27621C92.442 9.47856 90.5357 11.3104 90.738 11.5979C90.4611 11.1826 90.2162 10.7566 89.9286 10.3412C89.6411 9.92586 89.4707 9.65961 89.247 9.27621C89.8855 8.31381 90.7479 7.52076 91.7604 6.96516ZM87.0212 13.8451C87.0209 14.0686 87.0532 14.2911 87.117 14.5054C87.3757 15.8012 87.7317 17.0757 88.182 18.3181C87.862 19.6801 87.8876 21.1006 88.2566 22.4503C87.0186 19.7625 86.5894 16.7726 87.0212 13.8451ZM87.7134 15.8899C87.4638 14.8428 87.3317 13.7712 87.3194 12.6949C87.4239 12.4094 87.5558 12.1348 87.7134 11.8748C88.0968 11.0309 88.5529 10.222 89.0766 9.45726C89.3748 9.97911 89.6091 10.5223 89.8967 11.0548C90.1842 11.5873 90.6422 11.8961 90.2801 12.599C89.4223 14.2942 88.7578 16.0804 88.2992 17.924C88.1636 17.2302 87.9676 16.5495 87.7134 15.8899ZM88.4696 19.2979C91.4196 24.6229 91.2173 21.971 90.9191 25.4962C90.8098 26.1314 90.8952 26.7848 91.164 27.3706C90.1348 26.3155 89.3578 25.0412 88.8912 23.6432C88.4246 22.2451 88.2804 20.7596 88.4696 19.2979ZM94.1141 30.6721C93.1667 29.7549 92.3008 28.7571 91.5261 27.6901C91.0476 26.8221 90.9291 25.801 91.196 24.8465C91.2194 24.5246 91.2801 24.2065 91.377 23.8987C91.4746 24.3319 91.6839 24.7322 91.9841 25.0595C92.7362 26.077 93.5658 27.0348 94.4655 27.9244C94.5151 27.9567 94.5524 28.0046 94.5717 28.0605C94.591 28.1165 94.5911 28.1772 94.572 28.2332C94.6158 29.264 94.7621 30.2879 95.0087 31.2898C94.7644 31.015 94.4575 30.8032 94.1141 30.6721ZM90.3014 40.8109C90.4416 41.356 90.7038 41.8622 91.0682 42.2912C91.225 42.4659 91.4311 42.5889 91.6592 42.644C91.8874 42.6991 92.1269 42.6838 92.3462 42.6001C92.9163 42.4554 93.4473 42.1862 93.9011 41.812C94.184 41.8463 94.4701 41.8463 94.7531 41.812C95.0598 41.6413 95.3281 41.4093 95.5412 41.1304C95.9017 40.7904 96.2103 40.3992 96.4571 39.9695C96.0703 39.6543 95.8065 39.2133 95.7116 38.7235C95.2962 37.1686 97.8416 36.2633 97.2665 39.7885C97.0748 40.9493 95.9352 41.4499 95.9352 42.6001C95.9352 42.8663 95.9352 42.8557 95.7542 43.0793C95.6391 43.1793 95.5468 43.3028 95.4835 43.4415C95.4202 43.5802 95.3875 43.7309 95.3875 43.8834C95.3875 44.0358 95.4202 44.1865 95.4835 44.3252C95.5468 44.464 95.6391 44.5875 95.7542 44.6875C95.5561 44.8364 95.4047 45.0388 95.3179 45.2709C95.2311 45.503 95.2125 45.7551 95.2643 45.9974C95.4453 46.7429 96.0204 46.7536 96.5529 47.0624C96.4841 47.4131 96.4519 47.77 96.4571 48.1274C96.5094 48.3512 96.6138 48.5596 96.7618 48.7354C96.9099 48.9112 97.0974 49.0495 97.3091 49.1392C96.9754 50.0473 96.3089 50.7947 95.4447 51.2297C94.5805 51.6648 93.5833 51.755 92.655 51.4822C91.4058 51.2443 90.2772 50.5821 89.46 49.6078C89.0055 48.9633 88.7364 48.2065 88.6819 47.4197C88.6275 46.633 88.7898 45.8464 89.1512 45.1454C89.4952 44.2631 89.7938 43.3638 90.0458 42.451C90.2162 41.921 90.3024 41.3676 90.3014 40.8109ZM51.365 24.8359C50.406 24.9448 49.4378 24.9448 48.4788 24.8359C48.3617 24.8359 48.2126 24.74 48.2126 24.6122C48.2126 24.4844 48.351 24.4099 48.4788 24.3673C49.2243 24.1543 49.6929 24.3673 49.7994 24.1223C48.9869 23.8182 48.2173 23.4101 47.5097 22.9082C47.5267 22.8704 47.557 22.8401 47.5949 22.823C48.0741 22.5674 48.7557 23.0999 49.1498 22.823C48.8835 22.2905 48.5001 22.3757 47.7866 22.0349C47.6055 22.0349 47.5203 21.6196 47.9357 21.6622C48.4795 21.6851 49.011 21.8308 49.4906 22.0882C49.4906 21.545 48.7131 21.4705 48.7131 21.0232C48.9512 21.044 49.1811 21.1206 49.3841 21.2468C50.3895 21.7357 51.3454 22.3206 52.2383 22.9934C52.1531 22.9189 51.6419 23.8348 51.5993 23.8987C51.4287 24.1921 51.3472 24.5289 51.365 24.8678V24.8359ZM66.1046 48.8729C68.5278 46.4599 71.335 44.466 74.4116 42.9728C75.5109 44.3578 76.7691 45.6089 78.1604 46.7003L78.2988 46.5086C75.2751 44.0535 73.0506 40.7539 71.9088 37.0301C70.8438 33.5902 71.3763 32.9192 70.7586 32.8873C67.4821 32.9005 64.2164 32.5107 61.0352 31.7264C58.2247 30.9007 55.6046 29.5291 53.3246 27.6901C52.4947 27.0991 51.926 26.2098 51.7377 25.2086C51.5886 22.4716 55.5185 21.4918 58.3407 21.364C59.9276 21.2894 61.5357 21.364 63.08 21.2681C70.6927 21.0303 78.0888 23.8226 83.6451 29.032C87.2022 32.4613 90.8339 38.7554 89.3429 43.4308C88.96 44.4422 88.6713 45.4868 88.4802 46.5512C87.4152 52.3768 96.4251 54.0701 97.8629 48.2659C98.651 49.0433 99.1941 49.1179 100.195 49.9699C105.882 54.1234 107.863 58.0852 109.269 59.4803C111.863 59.7647 114.4 60.4323 116.799 61.4612C120.727 63.1469 124.207 65.7293 126.959 69.0014C125.766 71.387 125.564 72.0047 124.967 72.3349C124.22 72.6127 123.431 72.7604 122.635 72.7715C117.482 73.3033 112.276 72.6476 107.416 70.8545C102.546 69.0599 98.0073 66.4686 93.9863 63.1865C95.7532 61.129 97.3088 58.899 98.6297 56.5303H98.4273C94.4306 63.0007 88.5886 68.1268 81.6536 71.2486C80.8437 71.6691 79.9202 71.8185 79.0191 71.6747C78.118 71.5309 77.2868 71.1015 76.6481 70.4498C73.1336 67.553 70.3965 62.899 68.4263 58.7987C66.9342 56.451 65.7697 53.9106 64.965 51.2479C65.0215 50.3381 65.4303 49.4862 66.1046 48.8729ZM68.0322 101.175L103.177 83.8795C104.095 85.9856 105.126 88.0405 106.266 90.0352C107.395 92.1652 114.786 107.309 115.169 108.055C113.4 109.002 111.718 110.103 110.142 111.346C109.768 110.379 109.227 109.485 108.545 108.705C108.787 109.747 109.224 110.733 109.833 111.612C108.722 112.476 107.656 113.397 106.638 114.37C106.255 114.37 106.362 113.05 104.508 110.867C104.892 112.256 105.473 113.583 106.234 114.807C105.181 115.829 104.202 116.926 103.305 118.087C102.424 116.282 101.41 114.544 100.27 112.89C101.03 114.875 101.923 116.807 102.943 118.673C102.943 118.78 100.93 121.943 100.813 122.049C102.506 122.251 104.402 121.932 107.203 123.412C108.779 124.136 107.959 126.203 106.756 126.948C105.579 127.461 104.26 127.544 103.028 127.182L102.815 126.82C103.961 126.911 105.113 126.828 106.234 126.575C107.405 126.107 108.364 124.339 106.234 123.508C103.702 122.72 101.055 122.371 98.406 122.475C96.7773 122.539 95.1851 122.977 93.752 123.753C92.8513 121.624 91.7343 119.594 90.4185 117.693C91.2408 119.865 92.2233 121.972 93.3579 123.998C92.3047 124.717 91.1533 125.28 89.9393 125.67C89.0375 123.536 87.9168 121.502 86.5952 119.6C87.4038 121.689 88.3612 123.718 89.46 125.67H87.5217C87.2216 125.617 86.9125 125.682 86.6591 125.851C86.5206 125.489 86.2331 124.893 85.3172 122.922C85.0296 122.305 84.7208 121.602 83.9007 121.389C83.0245 121.447 82.1875 121.774 81.5045 122.326C80.5566 122.805 80.2052 123.497 80.514 124.339C81.1637 126.032 82.005 127.704 81.9624 127.598C82.2606 128.258 82.644 129.067 83.4002 129.174C84.1563 129.28 86.6697 128.322 86.8934 127.044C87.8602 127.902 89.1277 128.343 90.4185 128.269C91.3543 128.15 92.2775 127.946 93.1769 127.662C92.6124 127.97 93.0065 127.779 92.0054 128.333C91.2386 128.769 91.0682 129.568 91.4942 130.58C91.4942 130.686 92.5592 133.125 92.9 133.636C93.3153 134.371 93.7094 135.074 94.6146 135.074C95.2004 135.074 95.2856 134.936 97.3517 133.892C98.225 133.274 97.98 132.518 97.6286 131.666C97.2379 130.705 96.7934 129.766 96.2973 128.854C95.9672 128.194 95.6157 127.374 94.5081 127.246C95.6429 126.9 96.8163 126.696 98.0013 126.639C100.131 131.197 100.131 131.336 100.738 132.124L100.824 132.028C101.005 131.847 100.824 131.378 100.621 131.187C100.419 130.995 98.406 126.724 98.3421 126.618C99.4084 126.603 100.475 126.642 101.537 126.735C101.895 126.724 102.253 126.76 102.602 126.842C103.079 128.053 103.671 129.215 104.37 130.313L104.466 130.228C104.647 130.047 104.466 129.579 104.253 129.376C105.166 130.485 106.174 131.511 107.267 132.443C107.514 132.768 107.838 133.026 108.21 133.193C108.582 133.36 108.99 133.432 109.397 133.402C112.641 132.515 116.057 132.471 119.323 133.274C120.056 133.478 120.719 133.88 121.24 134.435C121.376 134.668 121.461 134.928 121.486 135.197C121.512 135.466 121.478 135.738 121.388 135.992C121.298 136.247 121.153 136.479 120.963 136.672C120.774 136.864 120.545 137.013 120.292 137.108C118.162 138.024 116.809 137.172 113.316 137.374C115.033 138.228 116.691 139.196 118.279 140.271C118.172 140.271 43.1325 177.195 41.7161 177.812C40.47 174.66 17.04 128.034 16.614 126.937C20.874 124.807 24.069 123.05 53.5695 108.108C53.3343 108.547 53.1245 108.998 52.9412 109.461C52.8682 109.593 52.8222 109.738 52.8057 109.888C52.7892 110.038 52.8027 110.189 52.8453 110.334C52.9405 110.471 53.0638 110.587 53.207 110.673C53.3502 110.76 53.51 110.815 53.676 110.835C53.3033 110.739 52.43 114.157 52.4087 114.466C51.9401 113.689 51.6525 113.22 50.6408 113.401C49.5682 113.642 48.6341 114.296 48.0422 115.222C47.4245 116.948 48.777 118.577 49.629 119.866C50.0657 120.558 50.4278 121.186 51.3543 121.027C52.0119 120.879 52.6487 120.65 53.25 120.345C53.5006 120.249 53.7316 120.108 53.9316 119.93C54.6878 119.131 54.3896 118.258 53.9316 117.395L53.7612 117.076C53.4524 116.437 53.0264 115.915 52.6962 115.286C53.8048 116.181 55.1805 116.679 56.6048 116.703C56.6585 116.7 56.7117 116.714 56.7574 116.743C56.803 116.771 56.8389 116.813 56.8604 116.863C57.0095 117.086 57.51 118.396 57.8082 118.396C57.9254 118.396 57.936 118.226 57.8934 118.13L57.4142 116.958C57.5207 116.958 57.4142 116.958 59.4164 117.065C61.2908 117.182 62.0682 116.16 63.6018 115.542C64.1876 115.286 65.0502 114.892 65.1567 114.179C65.1403 113.481 64.8889 112.809 64.4432 112.272C63.3143 110.568 63.1971 109.589 62.409 108.811C64.6931 106.595 66.5933 104.014 68.0322 101.175ZM95.0939 127.8C95.1897 127.907 98.8959 133.125 96.6488 133.764C95.2643 134.499 94.604 134.648 94.1034 134.35C93.5621 133.8 93.1413 133.144 92.868 132.422C92.5059 131.283 92.1971 131.102 91.803 130.026C91.196 128.759 94.4442 127.417 95.0939 127.8ZM83.4747 128.482C82.7931 128.29 82.5269 127.417 82.1648 126.575C81.8879 125.947 80.4927 124.243 80.8229 123.178C80.8786 123.009 80.9702 122.853 81.0915 122.723C81.2129 122.592 81.361 122.49 81.5258 122.422C82.1805 121.949 82.9561 121.672 83.7623 121.623C84.2948 121.698 86.4141 125.883 86.4674 125.968C87.33 127.438 84.6249 128.471 83.4747 128.524V128.482ZM54.0275 119.419C53.037 120.366 51.0242 121.453 50.1509 119.94C48.5427 117.118 47.6801 116.213 48.3404 115.286C48.9398 114.733 49.6745 114.347 50.4704 114.168C51.9188 113.625 52.0359 115.105 53.495 117.48C53.9423 118.375 54.2511 118.897 54.0275 119.461V119.419ZM61.8978 109.834C62.0469 109.674 62.4197 109.216 62.4836 109.131C62.6966 109.386 63.6551 111.527 63.7935 111.836C64.2518 112.458 64.5283 113.195 64.5923 113.966C64.4964 114.509 64.0917 114.743 63.6018 115.031C63.1331 115.317 62.623 115.529 62.0895 115.659C62.0716 115.453 62.0125 115.252 61.9155 115.069C61.8185 114.886 61.6858 114.725 61.5251 114.594C61.3334 114.424 60.8222 114.253 60.705 114.072L59.7359 112.315C60.5171 111.558 61.2399 110.743 61.8978 109.876V109.834ZM58.2981 112.89C58.4675 112.949 58.649 112.965 58.8259 112.935C59.0027 112.905 59.1692 112.831 59.3099 112.72C59.5229 113.156 59.6933 113.146 59.8211 113.785C58.1597 113.465 58.2981 112.975 58.2981 112.89ZM57.8934 112.603V112.858C57.8863 113.101 57.9628 113.34 58.1101 113.534C58.2573 113.727 58.4665 113.865 58.7028 113.923C59.6983 114.168 60.6334 114.614 61.4505 115.233C62.409 116.298 60.2897 116.17 59.8104 116.17C57.2225 116.17 55.8806 116.341 53.9849 115.446C53.2607 115.095 53.3672 114.594 53.5482 113.87C53.7671 112.993 54.0446 112.132 54.3789 111.293C55.1351 111.644 55.9977 111.772 56.7539 112.155C57.1073 112.357 57.4927 112.498 57.8934 112.571V112.603ZM39.405 186.492H39.3198C38.483 185.711 37.8598 184.728 37.5093 183.638C37.4561 183.532 12.1623 131.9 10.1495 128.098C9.89823 127.751 9.74241 127.344 9.69756 126.918C9.65271 126.492 9.72039 126.062 9.89387 125.67C10.3348 125.03 10.9694 124.549 11.7044 124.296C14.1645 123.231 52.6856 104.189 55.4439 102.868C54.8795 104.636 54.3789 105.829 53.7932 107.597C51.2478 108.822 16.0389 126.618 15.7514 126.618C15.7514 126.735 41.0025 178.079 41.1197 178.292C41.2368 178.505 41.8013 178.292 41.9078 178.292C42.0143 178.292 118.353 140.729 118.95 140.388C119.056 140.388 122.23 142.518 122.443 142.625C122.978 142.991 123.554 143.295 124.158 143.53C125.897 142.829 127.731 142.395 129.6 142.241C131.591 142.156 134.925 142.508 134.733 144.51C134.619 145.078 134.291 145.581 133.817 145.916C133.242 146.395 124.839 150.442 124.733 150.495C125.809 149.145 127.173 148.054 128.727 147.3C129.962 146.683 131.357 146.565 133.317 145.17C134.147 144.638 134.105 143.871 133.572 143.53C130.622 141.709 124.658 142.55 121.463 147.034C38.7873 187.781 42.6 185.906 42.387 186.002C41.7054 186.375 40.47 187.11 39.405 186.492ZM132.955 148.248C131.432 149.015 125.127 152.061 123.487 152.881C123.693 152.213 123.994 151.578 124.381 150.996C128.641 149.004 130.196 148.227 131.836 147.3C131.964 147.407 132.752 148.12 132.933 148.248H132.955ZM41.1623 203.628C41.2794 201.594 41.7906 187.898 41.7906 187.898C41.7481 187.648 41.7481 187.392 41.7906 187.142C41.8652 186.833 42.1208 186.769 42.8556 186.407L121.016 147.897L120.1 149.728C114.935 152.242 45.7205 186.62 45.3264 186.62C43.0793 187.61 43.9526 187.003 43.7822 189.666V190.465C43.7822 191.125 43.665 191.775 43.6757 192.435C43.6757 192.637 116.649 156.63 116.756 156.576C116.719 156.658 116.7 156.747 116.7 156.837C116.7 156.927 116.719 157.016 116.756 157.098C117.012 157.876 118.46 157.865 119.088 157.876C120.037 157.906 120.978 157.697 121.825 157.269C123.252 155.852 123.189 154.457 123.487 153.424C125.702 152.306 125.052 152.593 134.201 148.099C134.318 148.099 137.619 149.473 138.088 149.611C138.034 150.061 138.034 150.515 138.088 150.964C138.14 151.428 138.292 151.875 138.535 152.274C139.058 153.112 139.712 153.86 140.474 154.489C140.378 154.521 43.1219 202.467 41.141 203.585L41.1623 203.628ZM47.105 190.763C47.1273 190.317 47.0951 189.87 47.0091 189.432C46.9983 189.39 46.9983 189.346 47.0091 189.304C46.9133 189.165 118.737 153.797 118.609 153.871C118.285 154.588 117.866 155.258 117.363 155.863L47.105 190.763ZM46.892 189.027L46.7642 187.866C46.7003 187.6 41.4392 190.198 119.237 152.146C119.099 152.643 118.902 153.122 118.652 153.573C118.524 153.584 47.4458 188.644 46.86 188.984L46.892 189.027ZM44.1656 189.027C44.5703 188.825 46.0932 188.047 46.4234 187.845V189.219C45.5607 189.591 44.0165 190.284 43.8887 190.284V189.07C43.9969 189.053 44.1037 189.028 44.2082 188.995L44.1656 189.027ZM44.2827 187.6C44.5703 187.366 45.795 186.918 46.2956 186.641L46.3701 187.589C46.3701 187.696 46.4447 187.589 44.1656 188.814C44.1443 187.823 44.0804 187.706 44.2614 187.536L44.2827 187.6ZM44.1656 190.497C44.9994 190.155 45.8136 189.768 46.6044 189.336C46.6683 189.847 46.7216 190.358 46.7642 190.869C46.6896 190.869 43.9206 192.211 43.878 192.243V190.582C43.9632 190.411 44.0378 190.443 44.1443 190.433L44.1656 190.497ZM46.7855 187.376V186.375C47.0837 186.375 117.31 151.752 120.079 150.442C119.823 151.113 119.759 151.273 119.653 151.507C109.045 156.268 57.3929 182.168 46.7642 187.312L46.7855 187.376ZM168.483 171.625C168.132 172.562 169.41 173.446 170.176 173.947C169.271 174.223 167.855 174.681 167.556 175.597C167.45 176.098 167.929 176.662 168.313 177.078C168.568 177.355 170.443 179.676 170.347 179.58C167.801 178.76 160.325 175.714 160.432 175.757C159.652 175.509 158.928 175.111 158.302 174.586C157.375 173.297 159.654 171.763 161.092 170.081C161.837 169.303 161.869 169.016 162.615 168.217C163.233 167.269 164.617 168.6 171.082 169.41C170.4 169.974 169.559 169.942 168.462 171.561L168.483 171.625ZM179.229 170.294C178.483 170.294 156.662 165.65 155.224 164.969C155.053 164.894 155.053 164.894 155.053 164.734C155.107 164.34 159.452 151.539 160.623 148.621C160.796 148.085 161.073 147.589 161.439 147.162C161.805 146.734 162.251 146.383 162.753 146.129C164.184 145.42 165.726 144.962 167.312 144.776C169.624 144.322 171.96 143.999 174.309 143.807C175.32 143.807 175.906 145.021 176.524 145.937C178.651 149.429 180.057 153.312 180.659 157.356C181.261 161.4 181.046 165.524 180.028 169.484C179.857 170.123 179.538 170.23 179.208 170.23L179.229 170.294ZM190.944 166.289C194.224 167.759 194.373 170.656 191.711 172.967C190.668 174.249 189.525 175.445 188.292 176.545C188.505 175.643 188.789 174.76 189.144 173.904C189.666 172.658 189.591 172.04 188.079 172.04C187.086 172.097 186.093 171.918 185.182 171.518L185.491 171.188C186.087 170.56 186.833 169.772 186.737 168.866C186.641 167.961 185.576 167.45 183.457 167.152C186.087 163.595 185.736 163.456 186.087 163.595C187.736 164.389 189.342 165.267 190.901 166.225L190.944 166.289ZM189.027 147.119C189.233 147.913 189.379 148.721 189.464 149.537C189.328 149.022 189.038 148.561 188.633 148.216C188.562 148.144 188.472 148.095 188.374 148.074C188.275 148.053 188.173 148.062 188.079 148.099C187.749 148.269 187.621 148.887 187.632 149.27C186.672 153.862 185.107 158.307 182.978 162.487C182.232 163.744 182.275 163.978 182.339 164.138C182.552 164.819 183.606 164.042 184.213 163.797L185.427 163.115C183.994 165.378 182.395 167.531 180.645 169.559C181.647 165.031 181.774 160.353 181.018 155.778C180.193 151.425 178.383 147.319 175.725 143.775C179.843 143.538 183.975 143.753 188.047 144.414C188.577 145.217 188.899 146.139 188.984 147.098L189.027 147.119ZM181.881 136.416C184.366 138.376 186.376 140.874 187.76 143.722C180.04 142.594 172.179 142.908 164.574 144.648C163.292 144.919 162.109 145.538 161.156 146.438C158.909 149.558 158.834 151.763 157.961 154.255C156.576 158.259 155.522 161.507 154.627 164.479C149.952 162.349 139.046 154.351 138.652 150.506C138.727 148.376 140.995 141.113 145.575 137.417C147.651 135.712 149.956 134.307 152.423 133.242C152.181 133.47 151.99 133.747 151.864 134.055C151.738 134.362 151.68 134.693 151.693 135.026C151.706 135.358 151.79 135.683 151.94 135.98C152.09 136.277 152.302 136.538 152.561 136.746L153.722 138.248C153.894 138.48 154.112 138.674 154.362 138.82C154.612 138.965 154.889 139.058 155.176 139.093C155.463 139.128 155.754 139.104 156.031 139.023C156.308 138.941 156.566 138.805 156.789 138.62C157.021 138.449 157.215 138.232 157.36 137.984C157.505 137.735 157.599 137.46 157.635 137.174C157.67 136.888 157.648 136.598 157.569 136.322C157.489 136.045 157.355 135.787 157.173 135.564L156.108 133.934C155.916 133.534 155.614 133.196 155.236 132.962C154.859 132.728 154.422 132.607 153.978 132.614C158.364 131.006 163.06 130.427 167.706 130.921C167.273 132.99 167.009 135.092 166.917 137.204C166.854 138.461 168.057 138.12 168.078 137.076C168.154 135.02 168.386 132.973 168.771 130.952C171.167 131.773 172.221 131.134 177.972 133.764C177.259 134.56 176.601 135.403 176.002 136.288V136.32C175.885 136.533 175.682 136.948 176.087 137.225C176.492 137.502 177.248 136.608 177.504 136.256C177.934 135.574 178.407 134.92 178.92 134.297C180.592 135.436 181.05 135.734 181.838 136.395L181.881 136.416Z" fill="black"/>
<path d="M190.901 166.225C190.965 166.268 190.965 166.268 190.901 166.225ZM142.827 144.382L142.646 144.946C144.116 145.611 145.5 146.451 146.768 147.449L147.13 146.895C145.769 145.937 144.33 145.096 142.827 144.382ZM147.428 142.997C146.714 142.571 146.363 142.241 145.17 141.421C144.951 141.303 144.744 141.164 144.552 141.006L144.19 141.538C144.68 141.964 145.351 142.284 146.129 142.891C146.727 143.358 147.353 143.788 148.003 144.18C148.131 144.18 148.003 144.265 148.44 143.647C148.119 143.406 147.78 143.189 147.428 142.997ZM175.64 161.965C172.636 157.322 170.027 152.38 167.514 147.577C167.354 147.279 167.194 147.14 167.013 147.14C166.577 147.204 166.321 148.099 166.108 149.047C166.108 149.877 163.786 154.904 162.391 159.91C162.114 160.847 162.711 161.22 163.254 161.443C167.191 163.403 171.468 164.585 175.853 164.926C176.225 164.926 176.683 164.926 176.833 164.67C176.864 164.592 176.875 164.506 176.864 164.422C176.853 164.338 176.82 164.258 176.769 164.191C176.511 163.394 176.131 162.643 175.64 161.965ZM172.04 153.115C172.264 153.669 173.105 153.69 174.17 154.031C174.794 154.283 175.473 154.371 176.14 154.286C176.343 154.223 176.438 154.127 176.417 153.999C176.417 153.658 175.246 153.477 175.246 153.477L174.681 153.413C174.357 153.439 174.032 153.401 173.723 153.3C173.414 153.2 173.128 153.039 172.881 152.827C172.402 152.007 172.658 151.571 172.594 150.697C172.594 149.057 172.668 148.77 172.328 148.173C172.157 147.992 171.859 147.822 171.763 148.354C171.727 149.946 171.82 151.538 172.04 153.115ZM184.831 147.875C184.714 147.556 184.394 146.81 184.085 146.97C183.776 147.13 184.085 147.843 184.564 149.1C184.806 149.625 184.961 150.186 185.022 150.761C185.022 151.39 184.479 151.709 183.957 152.05C183.574 152.178 182.892 152.423 182.722 152.817C182.717 152.878 182.73 152.939 182.758 152.994C182.786 153.048 182.829 153.094 182.882 153.126C183.454 153.082 184.001 152.875 184.458 152.529C184.905 152.327 185.704 151.805 185.789 151.283C185.616 150.111 185.294 148.966 184.831 147.875Z" fill="black"/>
</svg>
