<svg width="24" height="24" viewBox="0 0 24 24" fill="none" xmlns="http://www.w3.org/2000/svg">
<rect width="24" height="24" rx="12" fill="white"/>
<path d="M9.588 14.12L10.74 3.08H15.276L14.124 14.12H9.588ZM11.22 20.12C10.724 20.12 10.292 20.008 9.924 19.784C9.556 19.56 9.276 19.256 9.084 18.872C8.908 18.488 8.844 18.056 8.892 17.576C8.94 17.08 9.1 16.64 9.372 16.256C9.644 15.856 9.988 15.544 10.404 15.32C10.82 15.096 11.268 14.984 11.748 14.984C12.26 14.984 12.7 15.096 13.068 15.32C13.452 15.544 13.732 15.856 13.908 16.256C14.1 16.64 14.172 17.08 14.124 17.576C14.076 18.056 13.916 18.488 13.644 18.872C13.372 19.256 13.028 19.56 12.612 19.784C12.196 20.008 11.732 20.12 11.22 20.12Z" fill="black"/>
</svg>
