<svg width="213" height="213" viewBox="0 0 213 213" fill="none" xmlns="http://www.w3.org/2000/svg">
<path d="M6.39308 111.094C5.73491 111.11 5.54215 110.344 5.92448 110.213C6.40267 110.049 42.7937 104.181 55.0881 102.233C118.989 92.1085 206.471 82.3638 207.106 82.5384C207.418 82.6247 207.266 83.0358 206.826 83.1061C201.196 84.0124 178.961 86.8325 178.597 86.873C112.05 94.2939 6.41758 111.089 6.39308 111.094Z" fill="black"/>
<path d="M25.9069 146.315C26.0006 145.332 26.0965 145.027 26.0571 142.922C25.9144 135.2 31.0445 134.803 42.3388 130.908C70.2493 121.283 59.66 125.536 88.2126 117.076C88.235 117.07 107.893 111.69 107.917 111.684C147.386 101.123 146.055 99.9095 158.332 109.886C161.585 112.529 180.068 130.51 184.925 136.28C189.495 141.71 191.88 144.388 191.676 147.502C191.508 150.076 191.316 153.447 190.169 155.988C189.291 157.934 188.602 158.718 172.138 166.34C168.701 167.931 158.292 172.753 153.717 174.406C132.752 181.981 86.4618 198.124 64.7059 202.983C56.9623 204.713 54.6843 203.596 48.9162 195.576C40.2035 183.462 30.3895 162.466 26.8058 151.686C26.4171 150.516 25.9154 147.876 25.9069 146.315ZM144.275 103.935C144.275 104.017 143.317 103.864 142.572 103.974C136.121 104.927 75.2739 121.372 51.4978 128.97C30.102 135.807 25.401 136.962 27.8484 143.569C30.5503 150.866 38.6624 169.56 43.0374 177.145C53.5373 195.348 57.2435 197.258 66.8626 195.28C91.611 190.192 180.139 160.347 188.727 150.487C192.776 145.839 190.252 143.563 178.544 131.245C169.225 121.442 159.554 112.157 157.098 110.16C153.039 106.86 149.099 103.935 144.275 103.935ZM155.75 169.501C155.734 170.85 156.586 170.561 157.757 170.141C164.155 167.84 165.146 167.168 165.159 166.4C165.192 164.529 164.628 164.878 159.111 167.159C156.131 168.39 155.762 168.37 155.749 169.501H155.75ZM168.139 164.411C168.139 165.412 168.621 165.636 169.281 165.37C170.629 164.825 171.435 164.53 176.083 162.306C177.257 161.743 177.475 161.159 177.323 160.423C177.186 159.756 176.981 159.642 176.329 159.862C175.691 160.079 175.052 160.306 174.439 160.585C168.307 163.371 168.071 163.291 168.139 164.411Z" fill="black"/>
<path d="M173.422 133.242C175.246 133.409 176.076 134.019 180.101 138.608C181.254 139.924 183.119 141.709 184.018 144.281C184.57 145.862 183.558 147.574 182.365 148.373C167.196 158.541 106.474 178.986 91.9868 183.165C63.2436 191.455 59.3371 196.903 46.3058 173.724C40.411 163.238 33.3224 146.832 33.0359 146.118C31.5129 142.318 32.3085 139.773 36.4567 138.035C37.3193 137.674 41.8924 135.142 56.9377 130.892C101.09 118.423 138.375 105.456 146.941 107.828C148.52 108.265 152.653 110.528 155.741 113.652C155.948 113.862 155.951 114.129 156.055 114.363C156.08 114.417 155.991 114.527 155.945 114.606C154.314 117.445 153.912 117.095 157.42 120.695C157.443 120.719 164.924 128.473 169.143 132.746C169.929 133.541 170.385 132.963 173.422 133.242ZM170.263 134.415C167.657 134.394 166.958 132.151 157.96 123.075C152.575 117.643 152.978 117.208 154.732 114.351C154.794 114.251 154.858 114.18 154.726 114.069C146.312 106.969 144.64 107.808 134.78 110.158C129.29 111.467 124.027 112.396 99.6964 119.649C33.7005 139.325 30.6822 138.001 34.299 146.691C34.3086 146.713 42.6614 164.989 47.0161 172.689C51.0195 179.769 57.8387 189.044 64.3341 188.951C76.0427 188.783 168.148 157.752 182.297 147.03C183.546 146.084 183.316 144.595 182.422 143.306C181.566 142.073 178.774 138.803 178.487 138.485C174.295 133.838 175.039 134.453 170.263 134.415Z" fill="black"/>
<path d="M167.36 125.715C167.026 126.078 166.714 126.414 165.949 126.027C165.373 125.736 159.476 120.009 158.942 119.217C158.517 118.586 159.32 117.883 159.725 118.17C161.239 119.241 166.675 124.332 167.36 125.715Z" fill="black"/>
<path d="M171.095 129.116C170.898 130.154 168.476 129.847 168.125 128.724C167.58 126.985 171.429 127.363 171.095 129.116Z" fill="black"/>
<path d="M178.763 147.189C177.78 147.241 177.478 146.581 176.025 144.409C175.812 144.09 175.645 143.748 175.857 143.36C175.927 143.233 176.003 143.078 176.119 143.008C176.766 142.613 177.903 141.989 178.502 142.457C179.177 142.986 181.146 145.311 180.66 146.012C180.198 146.679 179.571 147.089 178.764 147.189H178.763ZM179.87 145.602C179.801 145.364 179.938 145.559 179.196 144.517C179.021 144.271 178.894 144.482 177.707 145.204C177.561 145.292 177.585 145.264 178.223 146.263C178.434 146.593 178.568 146.57 179.673 145.882C179.768 145.823 179.815 145.682 179.87 145.602Z" fill="black"/>
<path d="M176.305 139.278C177.052 139.25 177.668 140.2 177.388 140.464C177.158 140.681 175.228 141.537 174.966 141.648C174.582 141.811 174.332 141.97 173.869 141.217C173.645 140.851 173.659 140.558 174.263 140.257C176.29 139.248 175.995 139.392 176.305 139.278Z" fill="black"/>
<path d="M150.712 113.406C150.96 114.003 149.929 114.512 149.243 114.639C147.21 115.019 147.346 112.947 149.392 112.918C150.048 112.909 150.482 112.856 150.712 113.406Z" fill="black"/>
<path d="M151.5 114.411C151.892 114.411 152.14 114.356 152.277 114.777C152.434 115.262 152.434 115.228 152.129 115.56C151.742 115.979 151.234 116.159 150.681 116.213C149.378 116.339 149.374 114.224 151.5 114.411Z" fill="black"/>
<path d="M172.46 139.388C172.019 138.835 172.235 138.788 174.1 137.958C174.284 137.876 174.676 138.202 174.792 138.339C175.314 138.954 174.748 139.15 173.517 139.782C173.123 139.984 172.75 139.75 172.46 139.388Z" fill="black"/>
<path d="M173.287 137.232C173.011 137.594 173.289 137.548 171.856 138.215C171.685 138.295 171.451 138.063 171.341 137.945C170.928 137.5 170.934 137.381 171.441 137.048C171.721 136.864 172.02 136.696 172.329 136.572C172.684 136.431 173.254 136.798 173.288 137.232H173.287Z" fill="black"/>
<path d="M145.816 109.86C146.681 110.57 145.181 110.839 144.107 111.177C143.488 111.373 142.874 110.707 145.816 109.86Z" fill="black"/>
<path d="M145.176 112.017C145.1 111.949 144.774 111.803 145.056 111.512C145.254 111.308 145.463 111.203 146.757 110.838C147.275 110.692 147.359 111.318 147.003 111.444C145.198 112.08 145.38 112.009 145.177 112.018L145.176 112.017Z" fill="black"/>
<path d="M148.534 112.493C148.286 112.555 148.134 112.325 147.938 112.195C147.896 112.167 147.894 112.009 147.932 111.947C148.154 111.576 149.107 111.33 149.029 112.119C149.002 112.388 148.878 112.488 148.534 112.493Z" fill="black"/>
<path d="M146.923 113.168C146.24 113.156 146.272 112.296 146.843 112.271C147.093 112.26 147.444 112.551 147.437 112.765C147.43 112.985 147.193 113.173 146.923 113.168Z" fill="black"/>
<path d="M106.75 60.3158C106.75 62.0294 106.624 61.8899 107.413 62.1114C108.878 62.5246 129.159 144.127 130.989 152.535C131.067 152.89 131.167 152.837 132.13 152.984C132.519 153.043 132.872 153.224 133.247 153.314C133.96 153.483 134.449 153.922 134.797 154.523C135.454 155.657 135.161 156.06 135.011 157.361C134.591 161.005 129.177 161.254 126.965 160.077C125.001 159.032 125.338 157.318 125.103 156.751C125.281 154.832 125.674 154.411 126.336 153.689C126.755 153.233 126.685 153.625 112.244 145.324C106.198 141.848 105.132 141.262 104.052 140.605C103.624 140.345 103.658 140.457 101.373 141.878C83.6609 152.884 87.0774 150.725 82.6949 153.537C82.1869 153.862 83.7067 154.258 84.0475 155.995C84.171 156.625 84.072 157.198 83.7589 158.321C82.8334 161.634 77.4509 161.897 74.6723 160.334C71.5465 158.578 72.9108 152.841 76.8182 152.915C77.6489 152.931 77.5275 153.065 88.7388 101.573C88.7462 101.539 97.8797 63.0709 98.59 62.3819C99.7988 61.2072 98.2141 58.2806 100.407 57.1037C100.775 56.9057 101.158 56.7651 101.588 56.7534C102.941 56.715 106.547 56.1154 106.75 59.0633C106.76 59.2018 106.772 60.3158 106.75 60.3158ZM103.659 119.213C102.176 119.923 96.1523 123.252 89.3629 126.8C86.0486 128.531 86.0028 127.933 87.7079 128.799C92.4567 131.209 93.5675 131.721 102.091 136.695C103.764 137.671 103.77 137.782 104.068 137.598C109.041 134.54 120.462 128.134 121.008 127.776C121.348 127.554 121.397 127.872 111.157 122.862C103.668 119.198 104.362 119.5 103.659 119.214V119.213ZM122.563 128.818C120.834 130.109 105.559 138.783 106.202 139.17C122.62 149.058 128.281 152.122 128.349 152.091C128.736 151.919 122.918 129.05 122.563 128.818ZM79.9004 152.123C80.0324 152.576 78.1612 153.214 101.142 139.356C101.64 139.056 101.822 139.339 91.2767 133.358C84.5416 129.538 84.9442 129.329 84.8036 129.946C81.6533 143.77 84.8292 129.962 79.9004 152.122V152.123ZM116.147 110.269C115.238 109.638 108.64 106.35 104.566 103.952C103.575 103.369 103.804 103.356 97.1321 107.239C97.1086 107.253 91.3874 110.491 91.2053 110.655C91.6835 111.063 92.5249 111.243 97.9265 113.703C105.01 116.929 102.92 116.912 105.35 115.709C109.717 113.544 115.728 110.623 116.147 110.269ZM121.935 125.988C121.928 125.963 118.168 111.452 118.16 111.43C118.049 111.05 118.582 111.319 108.55 116.526C106.264 117.712 106.146 117.756 106.438 117.935C106.46 117.948 121.827 125.988 121.935 125.988ZM100.951 117.912C100.393 117.454 95.0393 115.119 89.1627 112.04C88.8549 111.879 89.1989 110.867 86.1828 123.844C86.1327 124.058 85.6982 125.978 85.6886 126.3C85.8952 126.266 100.938 117.936 100.951 117.912ZM113.116 96.4363C113.047 96.3565 104.668 92.0411 103.128 91.253C102.896 91.1348 102.693 91.0432 102.436 91.2125C102.178 91.3818 94.6581 95.9581 94.6325 95.9837C95.1927 96.3043 98.4974 97.8656 103.821 100.885C104.279 101.145 103.962 101.155 110.857 97.6366C111.517 97.3 112.937 96.5354 113.115 96.4374L113.116 96.4363ZM89.6483 109.268C94.214 106.217 95.9105 105.372 101.218 102.555C101.795 102.249 101.724 102.438 98.1598 100.488C91.8529 97.0381 92.347 97.0753 92.2096 97.692C89.6366 109.262 89.5216 108.748 89.6494 109.267L89.6483 109.268ZM103.134 88.4446C103.485 88.2827 110.43 84.5115 110.71 84.2676C110.441 84.0759 106.563 82.0556 106.54 82.0418C103.966 80.6988 103.932 80.6083 103.602 80.8245C103.243 81.0599 96.2907 84.7117 96.2023 84.7852C96.3322 84.8758 102.999 88.386 103.135 88.4456L103.134 88.4446ZM117.369 108.453C117.321 108.079 114.825 98.4534 114.725 98.0913C114.547 97.4491 115.295 97.3181 106.853 102.022C106 102.498 105.471 101.819 112.822 106.003C117.313 108.561 117.06 108.575 117.369 108.453ZM113.78 94.497C111.402 85.0877 111.7 85.813 111.272 86.0366C111.006 86.1751 111.138 86.1143 108.188 87.8237C105.238 89.533 104.992 89.5373 105.347 89.7449C113.71 94.6216 113.569 94.6088 113.781 94.498L113.78 94.497ZM92.9786 94.3425C93.1042 94.6791 92.4578 94.9155 98.7807 91.0325C100.422 90.025 100.726 90.0112 100.326 89.7897C99.5517 89.3626 100.308 89.8142 95.0361 86.8417C94.6858 86.6437 94.8476 85.8577 92.9786 94.3425ZM108.108 76.6177C107.792 76.3334 107.364 76.1236 105.46 74.8786C103.537 73.6198 103.503 73.3269 102.963 73.6272C98.9479 75.8595 99.0065 75.4601 99.2983 75.7807C99.3185 75.803 101.377 76.9159 103.803 78.2727C104.181 78.4847 104.117 78.5145 108.108 76.6177ZM95.607 82.7319C95.7667 83.1867 95.2598 82.7947 101.277 79.8277C102.044 79.4496 102.045 79.7787 97.2939 76.9C96.8839 76.6518 96.9894 76.2599 95.607 82.7319ZM81.7066 155.023C81.0942 154.493 80.8663 154.823 79.3689 155.806C78.6522 156.277 77.1931 156.325 77.0696 155.33C76.9471 154.335 77.0153 154.183 76.7938 154.213C75.1068 154.44 74.3996 155.808 74.9023 156.405C77.0238 158.92 84.024 157.029 81.7066 155.023ZM106.558 69.7538C102.826 67.0743 102.772 66.6845 102.347 66.9582C99.9937 68.4726 99.8414 68.4875 100.069 68.6473C103.702 71.1958 103.498 71.1926 103.856 71.0169C104.901 70.5078 106.219 69.9679 106.558 69.7538ZM129.906 157.213C131.27 157.175 131.839 156.758 132.09 156.703C133.008 156.501 133.771 155.44 132.954 154.679C132.552 154.304 132.026 154.326 131.552 154.185C131.429 154.149 131.331 154.231 131.352 154.379C131.422 154.885 130.549 155.704 129.66 155.221C127.915 154.272 127.871 154.215 127.595 154.409C127.085 154.768 126.555 155.592 126.987 156.136C127.784 157.139 128.632 157.058 129.906 157.213ZM109.431 77.5922C109.199 77.7179 109.384 77.6082 106.517 79.2675C106.261 79.4155 105.968 79.5454 106.225 79.6935C110.605 82.2005 110.17 82.0908 110.616 82.1877C110.612 81.9758 109.634 77.9266 109.431 77.5922ZM98.2748 73.7572C101.193 72.1479 101.075 72.2544 101.205 72.1682C101.485 71.9818 101.295 71.9584 98.7988 70.0307C98.4622 69.7709 98.5219 69.9902 98.0139 72.2204C97.409 74.8765 97.4484 74.2119 98.2748 73.7572ZM102.814 57.7779C102.814 57.8418 100.354 57.5521 100.29 58.5884C100.226 59.6246 104.587 59.5852 105.391 58.8408C106.263 58.0335 104.113 57.7779 102.814 57.7779ZM107.726 70.7592C107.459 70.8774 107.077 71.1032 106.911 71.2097C105.093 72.3801 105.152 72.3024 105.468 72.5526C108.809 75.2002 108.536 75.0341 108.86 75.1747C108.848 74.7167 107.987 71.182 107.726 70.7592ZM107.097 67.9529C106.194 64.2946 106.303 64.2829 105.925 64.5364C104.157 65.7207 104.183 65.6291 104.434 65.8453C107.007 68.0615 106.897 68.0392 107.097 67.9529ZM99.2759 66.5162C99.3664 66.7228 99.2184 66.8442 100.733 65.7196C100.975 65.5407 100.889 65.5087 99.9298 64.7952C99.5816 64.5364 99.6103 64.923 99.2759 66.5162Z" fill="black"/>
<path d="M178.671 52.5044C175.682 48.0814 174.124 50.3871 177.838 47.5851C178.184 47.3242 178.068 46.7448 177.505 46.8684C177.305 46.912 177.185 46.9845 175.316 47.9195C175.093 48.0314 174.742 48.288 174.729 47.9675C174.536 43.3997 174.885 41.7266 173.971 41.8512C173.556 41.9076 173.568 42.3336 173.568 42.6158C173.564 47.2614 173.644 47.1336 173.543 47.6075C173.124 47.3817 172.58 46.8875 171.371 46.3188C170.934 46.1133 169.919 45.8407 169.824 46.2869C169.735 46.699 169.883 46.7171 170.268 46.9674C173.58 49.123 173.436 48.8812 172.92 49.1933C172.259 49.5916 171.529 49.9441 170.94 50.2902C170.077 50.7972 170.591 51.8355 171.526 51.4649C172.043 51.2604 173.01 50.7428 173.502 50.4883C173.95 50.2561 173.652 53.466 174.231 54.1125C174.627 53.7387 174.654 50.7301 174.775 50.1997C175.349 50.4116 177.484 52.4969 178.508 52.7717C178.642 52.8079 178.751 52.6215 178.672 52.5033L178.671 52.5044Z" fill="black"/>
<path d="M141.185 75.9154C137.613 77.6269 137.786 77.6684 137.841 77.1806C138.12 74.7087 138.589 72.9036 138.311 72.3828C138.111 72.0047 137.617 71.9664 137.401 72.3263C137.09 72.845 136.691 76.2147 136.506 77.0741C136.375 77.6844 135.386 76.1263 134.054 75.795C133.581 75.6768 133.148 76.4032 133.893 76.9783C136.354 78.8825 136.233 78.1476 133.817 79.3884C133.218 79.6961 132.778 80.1509 133.111 80.7377C133.316 81.0998 133.851 80.8101 134.09 80.7122C136.115 79.8836 136.14 79.7973 136.141 80.0476C136.147 82.185 136 82.7985 136.375 82.8177C136.73 82.8358 136.753 82.5972 137.265 80.5577C137.325 80.3213 137.361 80.0795 137.409 79.841C138.752 80.7079 138.966 81.1318 139.31 80.8879C139.602 80.6813 139.348 80.3543 138.776 79.6088C138.307 78.9986 138.061 78.94 138.375 78.8186C138.651 78.7121 140.409 77.7845 141.71 76.7972C141.967 76.6023 142 76.2924 141.808 76.0049C141.648 75.7663 141.528 75.7492 141.184 75.9143L141.185 75.9154Z" fill="black"/>
<path d="M35.2779 33.7444C33.5281 34.5325 33.3439 34.8413 33.3726 34.4665C33.5132 32.6038 33.5366 32.6048 33.4866 32.6027C33.4866 31.7305 33.6325 30.9807 32.9967 30.9296C32.3726 30.8795 32.281 31.5004 32.232 32.1501C32.0478 34.5644 32.1958 34.6134 31.7698 34.3962C31.5153 34.2662 31.6015 34.2258 30.1489 33.5953C29.593 33.3546 29.2617 33.9073 29.6121 34.3578C29.9263 34.7625 30.1925 34.8839 31.265 35.6284C31.5249 35.8084 31.331 35.77 30.6803 36.1928C29.6473 36.8648 29.3161 37.0235 29.1872 37.5816C29.0839 38.0257 29.4396 38.4517 30.1617 38.0736C31.9466 37.1385 31.9583 36.9192 31.9786 37.5369C31.9924 37.9714 31.9551 38.4655 32.1266 38.9363C32.1947 39.1226 32.477 39.2142 32.6389 38.9618C32.805 38.702 33.0947 37.1566 33.133 36.9447C33.1927 36.6167 33.2534 36.9149 34.82 37.4091C35.0085 37.4687 35.279 37.555 35.4185 37.2813C35.7518 36.6273 33.8402 36.0533 34.4036 35.6582C35.1491 35.1342 34.8732 35.442 37.0171 33.5804C37.1832 33.4366 37.3589 32.8114 35.2801 33.7465L35.2779 33.7444Z" fill="black"/>
<path d="M52.9112 85.4738C52.6535 85.5558 52.5459 85.6527 50.4755 86.9009C50.0751 87.1426 50.2562 87.1085 50.1912 83.9487C50.1699 82.9295 50.1316 82.266 49.5831 82.2575C48.9526 82.2479 49.057 82.7239 48.8983 84.6452C48.9622 84.6495 48.9441 84.6452 48.9441 85.7283C48.9441 86.0446 48.9877 86.3471 48.7279 86.1724C47.2007 85.1426 46.7289 85.9914 47.2028 86.4887C47.5532 86.8561 48.074 87.2023 48.8259 87.7156C49.1166 87.9137 48.7417 87.9392 47.9952 88.5537C46.6959 89.6219 46.5233 89.7508 46.5542 90.1949C46.5915 90.7232 47.0931 90.6422 47.5053 90.3792C49.1219 89.3472 49.0772 89.1203 49.1741 89.6667C49.3754 90.8137 49.4404 91.1002 49.7907 91.2216C50.2732 91.3888 50.3264 90.507 50.303 90.425C50.1465 89.8775 50.2625 89.3365 50.221 88.7976C50.1912 88.4153 51.0815 89.4782 52.6045 89.7263C52.8867 89.7721 52.9772 89.492 52.5661 89.1118C50.5107 87.214 50.7397 88.3663 53.1988 85.9094C53.4405 85.6687 53.1349 85.4035 52.9123 85.4748L52.9112 85.4738Z" fill="black"/>
<path d="M141.92 27.3438C131.538 8.9821 106.404 1.45255 86.4374 7.2355C69.5252 12.1345 59.2937 29.4865 61.0307 32.1853C61.3385 32.6634 61.3683 32.6581 67.3632 36.4868C71.2217 38.9512 68.4421 32.6219 79.0793 23.8335C97.5123 8.60402 125.603 17.4829 134.101 35.1555C135.164 37.3654 136.695 35.5592 139.087 33.7806C143.945 30.1692 143.917 30.8742 141.921 27.3438H141.92Z" fill="black"/>
<path d="M75.0674 39.7925C74.6894 40.489 74.9354 41.374 75.6202 41.8064C77.0846 42.7319 78.5362 43.6723 79.9931 44.6063C82.1422 45.9833 81.9665 42.0759 87.9071 37.2929C92.2203 33.82 97.1417 32.1096 102.4 32.2097C110.391 32.362 116.176 36.8882 121.055 43.2218C123.263 46.0877 122.09 46.4253 128.555 41.603C129.062 41.2249 129.844 40.3804 129.595 39.8C120.705 18.9888 88.5056 15.0057 75.0674 39.7904V39.7925Z" fill="black"/>
<path d="M87.8102 47.4341C87.266 48.2488 87.2553 49.2925 88.0946 49.8175C94.6017 53.8816 92.3758 53.528 96.18 50.514C100.041 47.4554 104.77 47.8856 108.231 50.3777C111.852 52.9859 111.233 54.4247 113.25 52.9497C117.713 49.6855 118.485 49.4512 117.625 48.2147C109.637 36.7404 95.5772 35.8107 87.8113 47.4341H87.8102Z" fill="black"/>
</svg>
